<svg width="1280" height="532" viewBox="0 0 1280 532" fill="none" xmlns="http://www.w3.org/2000/svg">

<g clip-path="url(#clip0_0_1)">

<mask id="path-1-inside-1_0_1" fill="white">
<path fill-rule="evenodd" clip-rule="evenodd" d="M409.914 179.854L400.28 188.002L396.426 206.939L412.941 192.956L416.795 174.019L409.914 179.854V179.854ZM391.416 230.667L391.967 219.491L379.415 201.875L378.479 221.143L391.031 238.759L391.416 230.667ZM750.353 475.427L729.819 468.655L711.652 475.262C716.552 476.913 721.561 478.51 732.186 482.088L750.353 475.482V475.427ZM798.634 28.3516L777.054 30.0032C779.09 31.3795 791.422 40.3529 793.074 40.7933L814.654 39.1418C809.314 35.5634 803.974 31.9851 798.634 28.3516ZM758.501 0L772.925 17.011L794.615 22.1859L780.191 5.17486L758.501 0V0ZM774.356 458.911L781.458 460.122L764.447 469.316L743.142 465.628L760.153 456.434L774.356 458.911ZM800.836 441.46L788.284 440.524L772.264 451.314C775.017 451.534 792.138 453.406 793.789 452.966L809.809 442.176L800.836 441.515V441.46ZM785.256 436.065L769.236 446.855L775.842 426.266L791.862 415.475L785.256 436.065ZM836.014 419.494L814.434 420.981L800.12 433.918C807.332 433.422 814.489 432.927 821.7 432.431L836.014 419.494ZM810.8 416.962L796.487 429.899L800.065 408.594L814.379 395.602L810.8 416.907V416.962ZM859.026 393.73L837.886 398.299L825.609 413.163L846.749 408.649L859.081 393.785L859.026 393.73ZM833.757 394.831L821.425 409.695L821.921 388.06L834.252 373.196L833.757 394.776V394.831ZM874.715 367.635L858.035 372.92L847.189 388.941L867.779 382.389L878.624 366.369L874.715 367.635ZM853.575 369.948L842.73 385.913L841.189 364.332L852.034 348.367L853.575 369.948ZM894.424 335.595L874.991 345.064L866.568 362.461L886.001 352.992L894.424 335.595V335.595ZM870.146 342.697L861.723 360.093L857.099 339.009L865.522 321.612L870.146 342.752V342.697ZM892.993 312.529L888.203 315.502L881.542 333.614L899.929 322.328L906.59 304.216L892.993 312.584V312.529ZM883.138 313.63L876.422 293.095L869.761 311.207L876.477 331.742L883.138 313.63ZM907.086 276.029L897.452 284.122L893.543 303.06L910.059 289.132L913.967 270.194L907.086 276.029ZM892.167 283.076L888.258 302.014C885.01 295.573 881.817 289.132 878.569 282.691L882.478 263.753L892.167 283.076ZM916.885 235.621L915.894 254.89L901.636 271.13L902.627 251.862L916.885 235.621ZM897.287 251.586L896.296 270.855L883.799 253.238C883.303 251.586 884.68 236.778 884.79 233.915L897.287 251.586ZM907.416 214.151C902.186 221.528 903.562 218.39 904.168 230.942L904.553 238.814L917.05 221.198L916.114 201.93L907.361 214.206L907.416 214.151ZM898.222 219.767L884.019 203.471L884.955 222.739C885.616 224.336 897.231 236.833 899.158 239.035L898.222 219.767ZM906.205 175.67L910.279 167.577L914.132 186.515L904.388 205.838L900.535 186.901L906.205 175.67ZM895.25 188.002L899.103 206.939L882.588 192.956L878.734 174.019L895.25 188.002ZM898.167 142.694C892.937 156.292 892.662 153.264 894.864 160.366L899.048 173.798L906.755 153.594L901.03 135.152L898.167 142.639V142.694ZM888.148 156.953L870.311 144.731L876.037 163.173C881.487 166.917 887.652 171.156 893.873 175.395L888.148 156.953ZM884.735 112.361L886.717 103.552L895.084 120.949L890.405 142.033L882.037 124.637L884.735 112.361V112.361ZM877.193 127.004L857.759 117.535L866.127 134.932L885.561 144.401L877.193 127.004ZM868.605 83.4584L867.118 95.9552L877.138 112.416L879.725 90.9455L869.706 74.485L868.605 83.4584ZM862.494 98.7628L872.568 115.278L852.309 107.736L842.235 91.2758L862.494 98.8179V98.7628ZM847.905 50.7577C848.07 56.9235 848.235 63.0893 848.346 69.2551L860.677 84.1191L860.127 62.5388L847.795 47.6748V50.8128H847.85L847.905 50.7577ZM844.217 72.6683L856.548 87.5323L835.408 83.018L823.077 68.1541L844.217 72.6683V72.6683ZM822.802 23.7273L826.435 45.0323L840.748 57.9695L837.115 36.6645L822.802 23.7273V23.7273ZM822.802 49.0511L837.115 61.9883L815.535 60.5019L801.221 47.5647L822.802 49.0511ZM800.01 18.9378L794.945 3.24805L810.965 14.0382L817.572 34.6275C812.232 31.0492 806.892 27.4158 801.552 23.8374L799.955 18.9378H800.01ZM757.565 451.644L766.153 431.826L749.142 441.019L740.554 460.838L757.565 451.644ZM728.002 463.536L709.835 470.087L715.451 461.058L721.231 451.7L739.398 445.093L728.002 463.481V463.536ZM481.15 420.871L459.57 419.384L473.884 432.321C481.095 432.817 488.252 433.312 495.464 433.808L481.15 420.871ZM461.277 373.141L461.772 394.721L474.104 409.585L473.608 388.005L461.277 373.141ZM532.844 439.698L538.019 451.589L555.03 460.783L546.442 440.964L529.431 431.771L532.844 439.698ZM535.431 456.379L552.387 465.573L531.082 469.261L514.071 460.067L535.376 456.324L535.431 456.379ZM429.622 323.539C428.521 328.494 427.42 333.558 425.438 342.642L433.861 360.038L438.54 338.954L430.118 321.557L429.677 323.594L429.622 323.539ZM506.805 424.999L510.328 435.955L526.348 446.745L519.742 426.156L503.722 415.365L506.805 424.999ZM442.284 366.259L442.009 369.838L452.854 385.803L454.395 364.222L443.55 348.257L442.229 366.204L442.284 366.259ZM437.549 372.865L448.395 388.885L427.805 382.334L416.96 366.314L437.549 372.865ZM483.738 410.686L481.206 395.547L495.519 408.539L499.097 429.844L491.775 423.238C484.343 416.521 485.169 419.329 483.738 410.686V410.686ZM457.698 398.189L470.03 413.053L448.89 408.539L436.559 393.675L457.698 398.244V398.189ZM507.355 440.414L523.375 451.204L501.85 452.856L485.83 442.065L507.355 440.414ZM420.594 344.954L429.017 362.351L409.583 352.882L401.16 335.485L420.594 344.954ZM559.269 450.103L567.582 463.536L585.749 470.087L574.353 451.7L556.186 445.093L559.269 450.048V450.103ZM565.765 468.6L553.819 472.564L545.286 475.427L563.453 482.033L583.932 475.207L565.765 468.6ZM409.198 271.515C402.702 284.452 402.922 280.489 404.904 290.068L407.326 301.904L417.015 282.581L413.107 263.643L409.198 271.46V271.515ZM386.186 289.627L402.041 303.005L398.133 284.067L381.617 270.139C382.223 273.112 384.535 288.251 386.186 289.627ZM407.436 315.446L396.701 308.84L388.994 304.106C390.04 306.968 394.884 322.273 396.426 322.713C401.436 325.796 406.39 328.824 414.097 333.558L407.436 315.446ZM419.217 293.04L425.879 311.152L419.162 331.687L412.501 313.575L419.217 293.04ZM405.675 210.188L411.62 203.361L410.684 222.629C410.024 224.226 398.353 236.778 396.481 238.925C396.811 232.483 397.142 226.042 397.417 219.656L405.675 210.188ZM393.013 251.752L394.004 271.02L379.745 254.779L378.754 235.511L393.013 251.752ZM522.66 17.011L537.083 0L515.393 5.17486L500.969 22.1859L522.66 17.011V17.011ZM410.794 233.915L411.785 253.183L399.289 270.855L398.298 251.586L410.794 233.915ZM429.677 121.554C415.914 128.271 419.548 124.582 413.932 136.253L409.969 144.456L429.402 134.987L437.77 117.591L429.677 121.554V121.554ZM475.921 48.8859C471.021 49.2163 471.902 49.8769 467.332 53.9507L458.359 62.0433L479.939 60.5569L494.253 47.6198L475.866 48.8859H475.921ZM493.922 23.8925L500.529 3.3031L484.509 14.0932L477.902 34.6826L493.922 23.8925ZM428.411 96.0102L425.824 74.5401L415.749 91.0005L418.336 112.471L428.356 96.0102H428.411ZM469.149 45.0874L454.836 58.0245C455.331 55.1618 457.643 38.261 458.469 36.7195L472.783 23.7824L469.149 45.0874ZM453.294 91.2758L443.22 107.736L422.961 115.278L433.035 98.7628L453.294 91.2207V91.2758ZM425.163 144.731L419.438 163.173L401.601 175.395L403.913 167.908L407.326 157.008L425.163 144.786V144.731ZM413.492 124.692L405.069 142.089L400.39 121.004L408.812 103.607L413.492 124.692V124.692ZM447.129 69.2551L447.679 47.6198L435.347 62.4837L434.797 84.064L447.129 69.2V69.2551ZM394.995 186.901L391.141 205.838L381.397 186.515C381.177 184.809 384.535 171.101 385.25 167.577L394.995 186.901ZM463.589 70.0258L472.397 68.1541L460.066 83.018L438.926 87.5323L451.257 72.6683L463.589 70.0258ZM402.151 155.356L394.444 135.152L388.719 153.594L396.426 173.798L402.151 155.356V155.356ZM518.476 29.9481L502.456 40.7383L480.875 39.0867L496.895 28.2966L518.476 29.9481Z"/>
</mask>
<path fill-rule="evenodd" clip-rule="evenodd" d="M409.914 179.854L400.28 188.002L396.426 206.939L412.941 192.956L416.795 174.019L409.914 179.854V179.854ZM391.416 230.667L391.967 219.491L379.415 201.875L378.479 221.143L391.031 238.759L391.416 230.667ZM750.353 475.427L729.819 468.655L711.652 475.262C716.552 476.913 721.561 478.51 732.186 482.088L750.353 475.482V475.427ZM798.634 28.3516L777.054 30.0032C779.09 31.3795 791.422 40.3529 793.074 40.7933L814.654 39.1418C809.314 35.5634 803.974 31.9851 798.634 28.3516ZM758.501 0L772.925 17.011L794.615 22.1859L780.191 5.17486L758.501 0V0ZM774.356 458.911L781.458 460.122L764.447 469.316L743.142 465.628L760.153 456.434L774.356 458.911ZM800.836 441.46L788.284 440.524L772.264 451.314C775.017 451.534 792.138 453.406 793.789 452.966L809.809 442.176L800.836 441.515V441.46ZM785.256 436.065L769.236 446.855L775.842 426.266L791.862 415.475L785.256 436.065ZM836.014 419.494L814.434 420.981L800.12 433.918C807.332 433.422 814.489 432.927 821.7 432.431L836.014 419.494ZM810.8 416.962L796.487 429.899L800.065 408.594L814.379 395.602L810.8 416.907V416.962ZM859.026 393.73L837.886 398.299L825.609 413.163L846.749 408.649L859.081 393.785L859.026 393.73ZM833.757 394.831L821.425 409.695L821.921 388.06L834.252 373.196L833.757 394.776V394.831ZM874.715 367.635L858.035 372.92L847.189 388.941L867.779 382.389L878.624 366.369L874.715 367.635ZM853.575 369.948L842.73 385.913L841.189 364.332L852.034 348.367L853.575 369.948ZM894.424 335.595L874.991 345.064L866.568 362.461L886.001 352.992L894.424 335.595V335.595ZM870.146 342.697L861.723 360.093L857.099 339.009L865.522 321.612L870.146 342.752V342.697ZM892.993 312.529L888.203 315.502L881.542 333.614L899.929 322.328L906.59 304.216L892.993 312.584V312.529ZM883.138 313.63L876.422 293.095L869.761 311.207L876.477 331.742L883.138 313.63ZM907.086 276.029L897.452 284.122L893.543 303.06L910.059 289.132L913.967 270.194L907.086 276.029ZM892.167 283.076L888.258 302.014C885.01 295.573 881.817 289.132 878.569 282.691L882.478 263.753L892.167 283.076ZM916.885 235.621L915.894 254.89L901.636 271.13L902.627 251.862L916.885 235.621ZM897.287 251.586L896.296 270.855L883.799 253.238C883.303 251.586 884.68 236.778 884.79 233.915L897.287 251.586ZM907.416 214.151C902.186 221.528 903.562 218.39 904.168 230.942L904.553 238.814L917.05 221.198L916.114 201.93L907.361 214.206L907.416 214.151ZM898.222 219.767L884.019 203.471L884.955 222.739C885.616 224.336 897.231 236.833 899.158 239.035L898.222 219.767ZM906.205 175.67L910.279 167.577L914.132 186.515L904.388 205.838L900.535 186.901L906.205 175.67ZM895.25 188.002L899.103 206.939L882.588 192.956L878.734 174.019L895.25 188.002ZM898.167 142.694C892.937 156.292 892.662 153.264 894.864 160.366L899.048 173.798L906.755 153.594L901.03 135.152L898.167 142.639V142.694ZM888.148 156.953L870.311 144.731L876.037 163.173C881.487 166.917 887.652 171.156 893.873 175.395L888.148 156.953ZM884.735 112.361L886.717 103.552L895.084 120.949L890.405 142.033L882.037 124.637L884.735 112.361V112.361ZM877.193 127.004L857.759 117.535L866.127 134.932L885.561 144.401L877.193 127.004ZM868.605 83.4584L867.118 95.9552L877.138 112.416L879.725 90.9455L869.706 74.485L868.605 83.4584ZM862.494 98.7628L872.568 115.278L852.309 107.736L842.235 91.2758L862.494 98.8179V98.7628ZM847.905 50.7577C848.07 56.9235 848.235 63.0893 848.346 69.2551L860.677 84.1191L860.127 62.5388L847.795 47.6748V50.8128H847.85L847.905 50.7577ZM844.217 72.6683L856.548 87.5323L835.408 83.018L823.077 68.1541L844.217 72.6683V72.6683ZM822.802 23.7273L826.435 45.0323L840.748 57.9695L837.115 36.6645L822.802 23.7273V23.7273ZM822.802 49.0511L837.115 61.9883L815.535 60.5019L801.221 47.5647L822.802 49.0511ZM800.01 18.9378L794.945 3.24805L810.965 14.0382L817.572 34.6275C812.232 31.0492 806.892 27.4158 801.552 23.8374L799.955 18.9378H800.01ZM757.565 451.644L766.153 431.826L749.142 441.019L740.554 460.838L757.565 451.644ZM728.002 463.536L709.835 470.087L715.451 461.058L721.231 451.7L739.398 445.093L728.002 463.481V463.536ZM481.15 420.871L459.57 419.384L473.884 432.321C481.095 432.817 488.252 433.312 495.464 433.808L481.15 420.871ZM461.277 373.141L461.772 394.721L474.104 409.585L473.608 388.005L461.277 373.141ZM532.844 439.698L538.019 451.589L555.03 460.783L546.442 440.964L529.431 431.771L532.844 439.698ZM535.431 456.379L552.387 465.573L531.082 469.261L514.071 460.067L535.376 456.324L535.431 456.379ZM429.622 323.539C428.521 328.494 427.42 333.558 425.438 342.642L433.861 360.038L438.54 338.954L430.118 321.557L429.677 323.594L429.622 323.539ZM506.805 424.999L510.328 435.955L526.348 446.745L519.742 426.156L503.722 415.365L506.805 424.999ZM442.284 366.259L442.009 369.838L452.854 385.803L454.395 364.222L443.55 348.257L442.229 366.204L442.284 366.259ZM437.549 372.865L448.395 388.885L427.805 382.334L416.96 366.314L437.549 372.865ZM483.738 410.686L481.206 395.547L495.519 408.539L499.097 429.844L491.775 423.238C484.343 416.521 485.169 419.329 483.738 410.686V410.686ZM457.698 398.189L470.03 413.053L448.89 408.539L436.559 393.675L457.698 398.244V398.189ZM507.355 440.414L523.375 451.204L501.85 452.856L485.83 442.065L507.355 440.414ZM420.594 344.954L429.017 362.351L409.583 352.882L401.16 335.485L420.594 344.954ZM559.269 450.103L567.582 463.536L585.749 470.087L574.353 451.7L556.186 445.093L559.269 450.048V450.103ZM565.765 468.6L553.819 472.564L545.286 475.427L563.453 482.033L583.932 475.207L565.765 468.6ZM409.198 271.515C402.702 284.452 402.922 280.489 404.904 290.068L407.326 301.904L417.015 282.581L413.107 263.643L409.198 271.46V271.515ZM386.186 289.627L402.041 303.005L398.133 284.067L381.617 270.139C382.223 273.112 384.535 288.251 386.186 289.627ZM407.436 315.446L396.701 308.84L388.994 304.106C390.04 306.968 394.884 322.273 396.426 322.713C401.436 325.796 406.39 328.824 414.097 333.558L407.436 315.446ZM419.217 293.04L425.879 311.152L419.162 331.687L412.501 313.575L419.217 293.04ZM405.675 210.188L411.62 203.361L410.684 222.629C410.024 224.226 398.353 236.778 396.481 238.925C396.811 232.483 397.142 226.042 397.417 219.656L405.675 210.188ZM393.013 251.752L394.004 271.02L379.745 254.779L378.754 235.511L393.013 251.752ZM522.66 17.011L537.083 0L515.393 5.17486L500.969 22.1859L522.66 17.011V17.011ZM410.794 233.915L411.785 253.183L399.289 270.855L398.298 251.586L410.794 233.915ZM429.677 121.554C415.914 128.271 419.548 124.582 413.932 136.253L409.969 144.456L429.402 134.987L437.77 117.591L429.677 121.554V121.554ZM475.921 48.8859C471.021 49.2163 471.902 49.8769 467.332 53.9507L458.359 62.0433L479.939 60.5569L494.253 47.6198L475.866 48.8859H475.921ZM493.922 23.8925L500.529 3.3031L484.509 14.0932L477.902 34.6826L493.922 23.8925ZM428.411 96.0102L425.824 74.5401L415.749 91.0005L418.336 112.471L428.356 96.0102H428.411ZM469.149 45.0874L454.836 58.0245C455.331 55.1618 457.643 38.261 458.469 36.7195L472.783 23.7824L469.149 45.0874ZM453.294 91.2758L443.22 107.736L422.961 115.278L433.035 98.7628L453.294 91.2207V91.2758ZM425.163 144.731L419.438 163.173L401.601 175.395L403.913 167.908L407.326 157.008L425.163 144.786V144.731ZM413.492 124.692L405.069 142.089L400.39 121.004L408.812 103.607L413.492 124.692V124.692ZM447.129 69.2551L447.679 47.6198L435.347 62.4837L434.797 84.064L447.129 69.2V69.2551ZM394.995 186.901L391.141 205.838L381.397 186.515C381.177 184.809 384.535 171.101 385.25 167.577L394.995 186.901ZM463.589 70.0258L472.397 68.1541L460.066 83.018L438.926 87.5323L451.257 72.6683L463.589 70.0258ZM402.151 155.356L394.444 135.152L388.719 153.594L396.426 173.798L402.151 155.356V155.356ZM518.476 29.9481L502.456 40.7383L480.875 39.0867L496.895 28.2966L518.476 29.9481Z" stroke="#474A51" stroke-width="2" mask="url(#path-1-inside-1_0_1)"/>
<mask id="path-2-inside-2_0_1" fill="white">
<path fill-rule="evenodd" clip-rule="evenodd" d="M699.488 70.5758C696.9 70.5758 694.808 72.6678 694.808 75.2552C694.808 77.8427 696.9 79.9346 699.488 79.9346H782.506C785.093 79.9346 787.185 77.8427 787.185 75.2552C787.185 72.6678 785.093 70.5758 782.506 70.5758H699.488ZM592.963 27.0299C590.375 27.0299 588.283 29.1219 588.283 31.7093C588.283 34.2967 590.375 36.3887 592.963 36.3887H702.626C705.213 36.3887 707.305 34.2967 707.305 31.7093C707.305 29.1219 705.213 27.0299 702.626 27.0299H592.963V27.0299ZM475.923 114.122C473.335 114.122 471.243 116.214 471.243 118.801C471.243 121.389 473.335 123.481 475.923 123.481H525.139C527.726 123.481 529.818 121.389 529.818 118.801C529.818 116.214 527.726 114.122 525.139 114.122H475.923ZM607.662 114.122C605.074 114.122 602.982 116.214 602.982 118.801C602.982 121.389 605.074 123.481 607.662 123.481H635.518C638.105 123.481 640.197 121.389 640.197 118.801C640.197 116.214 638.105 114.122 635.518 114.122H607.662ZM687.927 114.122C685.34 114.122 683.248 116.214 683.248 118.801C683.248 121.389 685.34 123.481 687.927 123.481H819.666C822.253 123.481 824.345 121.389 824.345 118.801C824.345 116.214 822.253 114.122 819.666 114.122H687.927ZM455.058 157.668C452.471 157.668 450.379 159.76 450.379 162.347C450.379 164.935 452.471 167.026 455.058 167.026H525.084C527.671 167.026 529.763 164.935 529.763 162.347C529.763 159.76 527.671 157.668 525.084 157.668H455.058ZM607.662 157.668C605.074 157.668 602.982 159.76 602.982 162.347C602.982 164.935 605.074 167.026 607.662 167.026H625.168C627.755 167.026 629.847 164.935 629.847 162.347C629.847 159.76 627.755 157.668 625.168 157.668H607.662ZM758.779 157.668C756.191 157.668 754.099 159.76 754.099 162.347C754.099 164.935 756.191 167.026 758.779 167.026H840.53C843.118 167.026 845.21 164.935 845.21 162.347C845.21 159.76 843.118 157.668 840.53 157.668H758.779ZM445.479 201.214C442.892 201.214 440.8 203.306 440.8 205.893C440.8 208.48 442.892 210.572 445.479 210.572H525.084C527.671 210.572 529.763 208.48 529.763 205.893C529.763 203.306 527.671 201.214 525.084 201.214H445.479ZM607.662 201.214C605.074 201.214 602.982 203.306 602.982 205.893C602.982 208.48 605.074 210.572 607.662 210.572H641.849C644.436 210.572 646.528 208.48 646.528 205.893C646.528 203.306 644.436 201.214 641.849 201.214H607.662ZM750.025 201.214C747.438 201.214 745.346 203.306 745.346 205.893C745.346 208.48 747.438 210.572 750.025 210.572H850.109C852.697 210.572 854.789 208.48 854.789 205.893C854.789 203.306 852.697 201.214 850.109 201.214H750.025ZM445.534 244.76C442.947 244.76 440.855 246.852 440.855 249.439C440.855 252.026 442.947 254.118 445.534 254.118H500.916C503.504 254.118 505.596 252.026 505.596 249.439C505.596 246.852 503.504 244.76 500.916 244.76H445.534ZM758.063 244.76C755.475 244.76 753.384 246.852 753.384 249.439C753.384 252.026 755.475 254.118 758.063 254.118H850.109C852.697 254.118 854.789 252.026 854.789 249.439C854.789 246.852 852.697 244.76 850.109 244.76H758.063ZM455.058 288.305C452.471 288.305 450.379 290.397 450.379 292.985C450.379 295.572 452.471 297.664 455.058 297.664H606.34C608.928 297.664 611.02 295.572 611.02 292.985C611.02 290.397 608.928 288.305 606.34 288.305H455.058ZM661.447 288.305C658.86 288.305 656.768 290.397 656.768 292.985C656.768 295.572 658.86 297.664 661.447 297.664H684.459C687.046 297.664 689.138 295.572 689.138 292.985C689.138 290.397 687.046 288.305 684.459 288.305H661.447ZM767.972 288.305C765.385 288.305 763.293 290.397 763.293 292.985C763.293 295.572 765.385 297.664 767.972 297.664H840.53C843.118 297.664 845.21 295.572 845.21 292.985C845.21 290.397 843.118 288.305 840.53 288.305H767.972ZM475.868 331.851C473.28 331.851 471.188 333.943 471.188 336.531C471.188 339.118 473.28 341.21 475.868 341.21H571.603C574.19 341.21 576.282 339.118 576.282 336.531C576.282 333.943 574.19 331.851 571.603 331.851H475.868V331.851ZM805.793 331.851C803.205 331.851 801.113 333.943 801.113 336.531C801.113 339.118 803.205 341.21 805.793 341.21H819.666C822.253 341.21 824.345 339.118 824.345 336.531C824.345 333.943 822.253 331.851 819.666 331.851H805.793ZM513.028 375.397C510.44 375.397 508.348 377.489 508.348 380.077C508.348 382.664 510.44 384.756 513.028 384.756H582.118C584.705 384.756 586.797 382.664 586.797 380.077C586.797 377.489 584.705 375.397 582.118 375.397H513.028ZM641.298 375.397C638.711 375.397 636.619 377.489 636.619 380.077C636.619 382.664 638.711 384.756 641.298 384.756H736.923C739.51 384.756 741.602 382.664 741.602 380.077C741.602 377.489 739.51 375.397 736.923 375.397H641.298ZM592.908 418.943C590.32 418.943 588.228 421.035 588.228 423.623C588.228 426.21 590.32 428.302 592.908 428.302H702.571C705.158 428.302 707.25 426.21 707.25 423.623C707.25 421.035 705.158 418.943 702.571 418.943H592.908Z"/>
</mask>
<path fill-rule="evenodd" clip-rule="evenodd" d="M699.488 70.5758C696.9 70.5758 694.808 72.6678 694.808 75.2552C694.808 77.8427 696.9 79.9346 699.488 79.9346H782.506C785.093 79.9346 787.185 77.8427 787.185 75.2552C787.185 72.6678 785.093 70.5758 782.506 70.5758H699.488ZM592.963 27.0299C590.375 27.0299 588.283 29.1219 588.283 31.7093C588.283 34.2967 590.375 36.3887 592.963 36.3887H702.626C705.213 36.3887 707.305 34.2967 707.305 31.7093C707.305 29.1219 705.213 27.0299 702.626 27.0299H592.963V27.0299ZM475.923 114.122C473.335 114.122 471.243 116.214 471.243 118.801C471.243 121.389 473.335 123.481 475.923 123.481H525.139C527.726 123.481 529.818 121.389 529.818 118.801C529.818 116.214 527.726 114.122 525.139 114.122H475.923ZM607.662 114.122C605.074 114.122 602.982 116.214 602.982 118.801C602.982 121.389 605.074 123.481 607.662 123.481H635.518C638.105 123.481 640.197 121.389 640.197 118.801C640.197 116.214 638.105 114.122 635.518 114.122H607.662ZM687.927 114.122C685.34 114.122 683.248 116.214 683.248 118.801C683.248 121.389 685.34 123.481 687.927 123.481H819.666C822.253 123.481 824.345 121.389 824.345 118.801C824.345 116.214 822.253 114.122 819.666 114.122H687.927ZM455.058 157.668C452.471 157.668 450.379 159.76 450.379 162.347C450.379 164.935 452.471 167.026 455.058 167.026H525.084C527.671 167.026 529.763 164.935 529.763 162.347C529.763 159.76 527.671 157.668 525.084 157.668H455.058ZM607.662 157.668C605.074 157.668 602.982 159.76 602.982 162.347C602.982 164.935 605.074 167.026 607.662 167.026H625.168C627.755 167.026 629.847 164.935 629.847 162.347C629.847 159.76 627.755 157.668 625.168 157.668H607.662ZM758.779 157.668C756.191 157.668 754.099 159.76 754.099 162.347C754.099 164.935 756.191 167.026 758.779 167.026H840.53C843.118 167.026 845.21 164.935 845.21 162.347C845.21 159.76 843.118 157.668 840.53 157.668H758.779ZM445.479 201.214C442.892 201.214 440.8 203.306 440.8 205.893C440.8 208.48 442.892 210.572 445.479 210.572H525.084C527.671 210.572 529.763 208.48 529.763 205.893C529.763 203.306 527.671 201.214 525.084 201.214H445.479ZM607.662 201.214C605.074 201.214 602.982 203.306 602.982 205.893C602.982 208.48 605.074 210.572 607.662 210.572H641.849C644.436 210.572 646.528 208.48 646.528 205.893C646.528 203.306 644.436 201.214 641.849 201.214H607.662ZM750.025 201.214C747.438 201.214 745.346 203.306 745.346 205.893C745.346 208.48 747.438 210.572 750.025 210.572H850.109C852.697 210.572 854.789 208.48 854.789 205.893C854.789 203.306 852.697 201.214 850.109 201.214H750.025ZM445.534 244.76C442.947 244.76 440.855 246.852 440.855 249.439C440.855 252.026 442.947 254.118 445.534 254.118H500.916C503.504 254.118 505.596 252.026 505.596 249.439C505.596 246.852 503.504 244.76 500.916 244.76H445.534ZM758.063 244.76C755.475 244.76 753.384 246.852 753.384 249.439C753.384 252.026 755.475 254.118 758.063 254.118H850.109C852.697 254.118 854.789 252.026 854.789 249.439C854.789 246.852 852.697 244.76 850.109 244.76H758.063ZM455.058 288.305C452.471 288.305 450.379 290.397 450.379 292.985C450.379 295.572 452.471 297.664 455.058 297.664H606.34C608.928 297.664 611.02 295.572 611.02 292.985C611.02 290.397 608.928 288.305 606.34 288.305H455.058ZM661.447 288.305C658.86 288.305 656.768 290.397 656.768 292.985C656.768 295.572 658.86 297.664 661.447 297.664H684.459C687.046 297.664 689.138 295.572 689.138 292.985C689.138 290.397 687.046 288.305 684.459 288.305H661.447ZM767.972 288.305C765.385 288.305 763.293 290.397 763.293 292.985C763.293 295.572 765.385 297.664 767.972 297.664H840.53C843.118 297.664 845.21 295.572 845.21 292.985C845.21 290.397 843.118 288.305 840.53 288.305H767.972ZM475.868 331.851C473.28 331.851 471.188 333.943 471.188 336.531C471.188 339.118 473.28 341.21 475.868 341.21H571.603C574.19 341.21 576.282 339.118 576.282 336.531C576.282 333.943 574.19 331.851 571.603 331.851H475.868V331.851ZM805.793 331.851C803.205 331.851 801.113 333.943 801.113 336.531C801.113 339.118 803.205 341.21 805.793 341.21H819.666C822.253 341.21 824.345 339.118 824.345 336.531C824.345 333.943 822.253 331.851 819.666 331.851H805.793ZM513.028 375.397C510.44 375.397 508.348 377.489 508.348 380.077C508.348 382.664 510.44 384.756 513.028 384.756H582.118C584.705 384.756 586.797 382.664 586.797 380.077C586.797 377.489 584.705 375.397 582.118 375.397H513.028ZM641.298 375.397C638.711 375.397 636.619 377.489 636.619 380.077C636.619 382.664 638.711 384.756 641.298 384.756H736.923C739.51 384.756 741.602 382.664 741.602 380.077C741.602 377.489 739.51 375.397 736.923 375.397H641.298ZM592.908 418.943C590.32 418.943 588.228 421.035 588.228 423.623C588.228 426.21 590.32 428.302 592.908 428.302H702.571C705.158 428.302 707.25 426.21 707.25 423.623C707.25 421.035 705.158 418.943 702.571 418.943H592.908Z" stroke="#474A51" stroke-width="2" mask="url(#path-2-inside-2_0_1)"/>
<mask id="path-3-inside-3_0_1" fill="white">
<path fill-rule="evenodd" clip-rule="evenodd" d="M519.577 60.8328H643.829C652.967 60.8328 651.041 60.6676 660.73 58.4105C671.575 55.8781 680.879 54.0063 681.76 68.1546C681.98 72.2835 673.942 88.3036 671.85 100.525C670.033 110.985 671.41 124.307 662.216 123.867C658.087 123.702 656.766 122.436 654.949 118.637C653.078 114.783 649.499 90.7258 634.525 78.6695C625.387 71.2926 601.494 73.1093 588.997 73.1093V241.898H613.22V254.174H519.577V241.898H543.8V73.0542H519.577V60.7777V60.8328ZM740.114 142.53H643.829V154.806C653.738 154.806 669.373 153.21 674.438 159.761C679.668 166.532 675.043 182.277 671.52 190.369C666.785 201.215 650.931 226.208 644.104 240.852L637.993 254.285C634.25 261.166 625.056 287.371 623.68 295.188C623.129 298.381 621.698 315.722 620.487 319.135C617.569 323.98 614.762 326.402 612.009 326.402L601.494 325.246C598.797 324.971 595.879 325.742 593.622 327.283C590.649 329.32 589.823 332.183 590.098 333.724C590.759 337.358 591.475 341.101 593.016 344.514C598.797 357.562 602.375 386.354 603.531 388.005C605.678 392.63 608.706 393.235 610.247 393.235C618.34 393.235 620.047 380.133 621.918 373.692C631.112 341.927 645.095 341.321 677.906 341.321C695.522 341.321 724.7 339.615 737.417 346.276C747.932 351.726 754.538 363.122 757.235 380.408C757.676 386.078 759.493 393.235 766.264 393.235C776.504 393.235 775.513 373.086 780.247 357.066C783.825 345.01 790.487 337.303 784.761 329.705C780.412 323.374 773.861 327.834 766.484 327.228C759.052 326.622 756.134 316.328 749.363 290.784C738.243 248.339 729.71 200.609 723.709 154.806H740.059V142.53H740.114ZM663.703 328.99H714.46L697.559 268.268L684.402 202.646C666.896 225.878 639.205 276.746 639.205 310.052C639.205 326.678 645.866 328.99 663.703 328.99V328.99Z"/>
</mask>
<path fill-rule="evenodd" clip-rule="evenodd" d="M519.577 60.8328H643.829C652.967 60.8328 651.041 60.6676 660.73 58.4105C671.575 55.8781 680.879 54.0063 681.76 68.1546C681.98 72.2835 673.942 88.3036 671.85 100.525C670.033 110.985 671.41 124.307 662.216 123.867C658.087 123.702 656.766 122.436 654.949 118.637C653.078 114.783 649.499 90.7258 634.525 78.6695C625.387 71.2926 601.494 73.1093 588.997 73.1093V241.898H613.22V254.174H519.577V241.898H543.8V73.0542H519.577V60.7777V60.8328ZM740.114 142.53H643.829V154.806C653.738 154.806 669.373 153.21 674.438 159.761C679.668 166.532 675.043 182.277 671.52 190.369C666.785 201.215 650.931 226.208 644.104 240.852L637.993 254.285C634.25 261.166 625.056 287.371 623.68 295.188C623.129 298.381 621.698 315.722 620.487 319.135C617.569 323.98 614.762 326.402 612.009 326.402L601.494 325.246C598.797 324.971 595.879 325.742 593.622 327.283C590.649 329.32 589.823 332.183 590.098 333.724C590.759 337.358 591.475 341.101 593.016 344.514C598.797 357.562 602.375 386.354 603.531 388.005C605.678 392.63 608.706 393.235 610.247 393.235C618.34 393.235 620.047 380.133 621.918 373.692C631.112 341.927 645.095 341.321 677.906 341.321C695.522 341.321 724.7 339.615 737.417 346.276C747.932 351.726 754.538 363.122 757.235 380.408C757.676 386.078 759.493 393.235 766.264 393.235C776.504 393.235 775.513 373.086 780.247 357.066C783.825 345.01 790.487 337.303 784.761 329.705C780.412 323.374 773.861 327.834 766.484 327.228C759.052 326.622 756.134 316.328 749.363 290.784C738.243 248.339 729.71 200.609 723.709 154.806H740.059V142.53H740.114ZM663.703 328.99H714.46L697.559 268.268L684.402 202.646C666.896 225.878 639.205 276.746 639.205 310.052C639.205 326.678 645.866 328.99 663.703 328.99V328.99Z" stroke="#474A51" stroke-width="2" mask="url(#path-3-inside-3_0_1)"/>
<mask id="path-4-inside-4_0_1" fill="white">
<path fill-rule="evenodd" clip-rule="evenodd" d="M684.403 486.933C668.162 483.519 655.445 470.802 652.032 454.562C651.096 450.103 644.545 450.103 643.609 454.562C640.196 470.802 627.479 483.574 611.239 486.933C606.78 487.868 606.78 494.42 611.239 495.356C627.534 498.769 640.251 511.486 643.609 527.781C644.545 532.24 651.096 532.24 652.032 527.781C655.445 511.486 668.162 498.769 684.403 495.356C688.862 494.42 688.862 487.868 684.403 486.933Z"/>
</mask>
<path fill-rule="evenodd" clip-rule="evenodd" d="M684.403 486.933C668.162 483.519 655.445 470.802 652.032 454.562C651.096 450.103 644.545 450.103 643.609 454.562C640.196 470.802 627.479 483.574 611.239 486.933C606.78 487.868 606.78 494.42 611.239 495.356C627.534 498.769 640.251 511.486 643.609 527.781C644.545 532.24 651.096 532.24 652.032 527.781C655.445 511.486 668.162 498.769 684.403 495.356C688.862 494.42 688.862 487.868 684.403 486.933Z" stroke="#474A51" stroke-width="2" mask="url(#path-4-inside-4_0_1)"/>
<mask id="path-5-inside-5_0_1" fill="white">
<path fill-rule="evenodd" clip-rule="evenodd" d="M942.159 221.583C972.217 236.777 980.254 249.604 987.301 272.23C987.301 272.23 973.263 215.582 1006.57 184.313C1006.57 184.313 1091.73 400.336 842.57 448.506C903.732 394.555 942.269 315.611 942.269 227.693C942.269 225.656 942.269 223.62 942.214 221.583H942.159ZM919.753 441.9C889.089 463.095 800.235 490.29 763.295 498.768C763.295 498.768 874.06 501.796 878.519 531.084C878.519 531.084 886.226 518.422 878.354 509.173C878.354 509.173 893.768 524.973 917.661 524.697C917.661 524.697 913.917 506.971 892.172 495.08C960.601 490.731 959.775 448.891 959.775 448.891C936.048 450.598 924.377 467.554 924.377 467.554C930.047 457.7 919.697 441.9 919.697 441.9H919.753ZM988.237 398.023C962.638 398.023 962.638 436.945 988.237 436.945C1013.84 436.945 1013.84 398.023 988.237 398.023ZM1149.21 304.656C1161.76 304.656 1171.89 314.84 1171.89 327.337C1171.89 339.834 1161.7 350.018 1149.21 350.018C1136.71 350.018 1126.53 339.834 1126.53 327.337C1126.53 314.84 1136.71 304.656 1149.21 304.656ZM1063.77 317.318C1038.72 317.318 1018.35 337.632 1018.35 362.735C1018.35 387.839 1038.66 408.153 1063.77 408.153C1088.87 408.153 1109.19 387.839 1109.19 362.735C1109.19 337.632 1088.87 317.318 1063.77 317.318V317.318ZM1143.98 381.233C1155.54 375.507 1218.24 360.203 1234.98 383.49C1234.98 383.49 1234.1 369.121 1224.52 362.02C1224.52 362.02 1242.14 373.636 1257.77 367.25C1257.77 367.25 1220.89 312.033 1144.03 381.233H1143.98ZM983.612 456.103C983.612 456.103 1227.82 423.017 1253.59 470.251C1253.59 470.251 1259.37 442.836 1248.63 424.724C1248.63 424.724 1269.17 455.332 1295.59 451.203C1295.59 451.203 1287.88 325.245 983.612 456.103ZM898.062 413.603C982.236 367.36 986.861 311.152 988.567 292.93C970.62 343.522 956.747 358.992 945.352 368.351C959.665 337.136 955.151 312.418 955.151 312.418C949.315 371.764 898.117 413.603 898.117 413.603H898.062Z"/>
</mask>
<path fill-rule="evenodd" clip-rule="evenodd" d="M942.159 221.583C972.217 236.777 980.254 249.604 987.301 272.23C987.301 272.23 973.263 215.582 1006.57 184.313C1006.57 184.313 1091.73 400.336 842.57 448.506C903.732 394.555 942.269 315.611 942.269 227.693C942.269 225.656 942.269 223.62 942.214 221.583H942.159ZM919.753 441.9C889.089 463.095 800.235 490.29 763.295 498.768C763.295 498.768 874.06 501.796 878.519 531.084C878.519 531.084 886.226 518.422 878.354 509.173C878.354 509.173 893.768 524.973 917.661 524.697C917.661 524.697 913.917 506.971 892.172 495.08C960.601 490.731 959.775 448.891 959.775 448.891C936.048 450.598 924.377 467.554 924.377 467.554C930.047 457.7 919.697 441.9 919.697 441.9H919.753ZM988.237 398.023C962.638 398.023 962.638 436.945 988.237 436.945C1013.84 436.945 1013.84 398.023 988.237 398.023ZM1149.21 304.656C1161.76 304.656 1171.89 314.84 1171.89 327.337C1171.89 339.834 1161.7 350.018 1149.21 350.018C1136.71 350.018 1126.53 339.834 1126.53 327.337C1126.53 314.84 1136.71 304.656 1149.21 304.656ZM1063.77 317.318C1038.72 317.318 1018.35 337.632 1018.35 362.735C1018.35 387.839 1038.66 408.153 1063.77 408.153C1088.87 408.153 1109.19 387.839 1109.19 362.735C1109.19 337.632 1088.87 317.318 1063.77 317.318V317.318ZM1143.98 381.233C1155.54 375.507 1218.24 360.203 1234.98 383.49C1234.98 383.49 1234.1 369.121 1224.52 362.02C1224.52 362.02 1242.14 373.636 1257.77 367.25C1257.77 367.25 1220.89 312.033 1144.03 381.233H1143.98ZM983.612 456.103C983.612 456.103 1227.82 423.017 1253.59 470.251C1253.59 470.251 1259.37 442.836 1248.63 424.724C1248.63 424.724 1269.17 455.332 1295.59 451.203C1295.59 451.203 1287.88 325.245 983.612 456.103ZM898.062 413.603C982.236 367.36 986.861 311.152 988.567 292.93C970.62 343.522 956.747 358.992 945.352 368.351C959.665 337.136 955.151 312.418 955.151 312.418C949.315 371.764 898.117 413.603 898.117 413.603H898.062Z" stroke="#474A51" stroke-width="2" mask="url(#path-5-inside-5_0_1)"/>
<mask id="path-6-inside-6_0_1" fill="white">
<path fill-rule="evenodd" clip-rule="evenodd" d="M353.432 221.583C323.374 236.777 315.336 249.604 308.29 272.23C308.29 272.23 322.328 215.582 289.022 184.313C289.022 184.313 203.857 400.336 453.021 448.506C391.913 394.555 353.322 315.611 353.322 227.693C353.322 225.656 353.322 223.62 353.377 221.583H353.432ZM375.838 441.9C406.502 463.095 495.356 490.29 532.295 498.768C532.295 498.768 421.476 501.796 417.072 531.084C417.072 531.084 409.365 518.422 417.237 509.173C417.237 509.173 401.823 524.973 377.93 524.698C377.93 524.698 381.674 506.971 403.419 495.08C334.99 490.731 335.816 448.891 335.816 448.891C359.543 450.598 371.214 467.554 371.214 467.554C365.544 457.7 375.893 441.9 375.893 441.9H375.838ZM307.354 398.023C332.953 398.023 332.953 436.945 307.354 436.945C281.755 436.945 281.755 398.023 307.354 398.023ZM146.383 304.656C133.831 304.656 123.701 314.84 123.701 327.337C123.701 339.834 133.886 350.018 146.383 350.018C158.879 350.018 169.064 339.834 169.064 327.337C169.064 314.84 158.879 304.656 146.383 304.656ZM231.823 317.318C256.871 317.318 277.241 337.632 277.241 362.735C277.241 387.839 256.926 408.153 231.823 408.153C206.719 408.153 186.405 387.839 186.405 362.735C186.405 337.632 206.719 317.318 231.823 317.318ZM151.612 381.233C140.052 375.507 77.3477 360.203 60.612 383.49C60.612 383.49 61.4928 369.121 71.0718 362.02C71.0718 362.02 53.4552 373.636 37.8756 367.25C37.8756 367.25 74.7603 312.033 151.612 381.233ZM311.978 456.103C311.978 456.103 67.7687 423.017 42.0045 470.251C42.0045 470.251 36.224 442.836 46.9591 424.724C46.9591 424.724 26.4248 455.332 0 451.203C0 451.203 7.70724 325.245 311.978 456.103ZM397.529 413.603C313.355 367.36 308.73 311.152 307.024 292.93C324.97 343.522 338.843 358.992 350.239 368.351C335.926 337.136 340.44 312.418 340.44 312.418C346.33 371.764 397.474 413.603 397.474 413.603H397.529Z"/>
</mask>
<path fill-rule="evenodd" clip-rule="evenodd" d="M353.432 221.583C323.374 236.777 315.336 249.604 308.29 272.23C308.29 272.23 322.328 215.582 289.022 184.313C289.022 184.313 203.857 400.336 453.021 448.506C391.913 394.555 353.322 315.611 353.322 227.693C353.322 225.656 353.322 223.62 353.377 221.583H353.432ZM375.838 441.9C406.502 463.095 495.356 490.29 532.295 498.768C532.295 498.768 421.476 501.796 417.072 531.084C417.072 531.084 409.365 518.422 417.237 509.173C417.237 509.173 401.823 524.973 377.93 524.698C377.93 524.698 381.674 506.971 403.419 495.08C334.99 490.731 335.816 448.891 335.816 448.891C359.543 450.598 371.214 467.554 371.214 467.554C365.544 457.7 375.893 441.9 375.893 441.9H375.838ZM307.354 398.023C332.953 398.023 332.953 436.945 307.354 436.945C281.755 436.945 281.755 398.023 307.354 398.023ZM146.383 304.656C133.831 304.656 123.701 314.84 123.701 327.337C123.701 339.834 133.886 350.018 146.383 350.018C158.879 350.018 169.064 339.834 169.064 327.337C169.064 314.84 158.879 304.656 146.383 304.656ZM231.823 317.318C256.871 317.318 277.241 337.632 277.241 362.735C277.241 387.839 256.926 408.153 231.823 408.153C206.719 408.153 186.405 387.839 186.405 362.735C186.405 337.632 206.719 317.318 231.823 317.318ZM151.612 381.233C140.052 375.507 77.3477 360.203 60.612 383.49C60.612 383.49 61.4928 369.121 71.0718 362.02C71.0718 362.02 53.4552 373.636 37.8756 367.25C37.8756 367.25 74.7603 312.033 151.612 381.233ZM311.978 456.103C311.978 456.103 67.7687 423.017 42.0045 470.251C42.0045 470.251 36.224 442.836 46.9591 424.724C46.9591 424.724 26.4248 455.332 0 451.203C0 451.203 7.70724 325.245 311.978 456.103ZM397.529 413.603C313.355 367.36 308.73 311.152 307.024 292.93C324.97 343.522 338.843 358.992 350.239 368.351C335.926 337.136 340.44 312.418 340.44 312.418C346.33 371.764 397.474 413.603 397.474 413.603H397.529Z" stroke="#474A51" stroke-width="2" mask="url(#path-6-inside-6_0_1)"/>
</g>

</svg>
