<svg width="34" height="34" viewBox="0 0 34 34" fill="none" xmlns="http://www.w3.org/2000/svg">
<path fill-rule="evenodd" clip-rule="evenodd" d="M29.4918 27.4563C23.7201 34.1475 13.6121 34.8853 6.93071 29.1038C0.239193 23.3324 -0.498667 13.2248 5.28312 6.54374C11.0548 -0.147455 21.1628 -0.885311 27.8442 4.89621C34.5357 10.6676 35.2736 20.7752 29.4918 27.4563Z" fill="#474A50"/>
<path d="M29.4918 27.4563C23.7201 34.1475 13.6121 34.8853 6.93071 29.1038C0.239193 23.3324 -0.498667 13.2248 5.28312 6.54374C11.0548 -0.147455 21.1628 -0.88531 27.8442 4.89621C34.5357 10.6676 35.2736 20.7752 29.4918 27.4563Z" stroke="white" stroke-width="0.96" stroke-miterlimit="22.93"/>
<path d="M13.5009 17.8132C13.42 17.8132 13.3594 17.7525 13.42 17.6211L15.8864 10.0506C15.947 9.85855 16.0279 9.73726 16.0784 9.73726C16.1593 9.73726 16.2199 9.81812 16.3008 10.0506L18.9693 17.6211C18.9996 17.7323 18.9997 17.8132 18.8581 17.8132H13.5009ZM16.5535 5.5022C16.3817 5.5022 16.2705 5.67401 15.9369 6.5938L9.56886 24.0091C9.06346 25.4141 8.5075 26.4753 7.21367 26.6472C6.9913 26.6775 6.5971 26.7078 6.40504 26.7078C6.26353 26.7078 6.15234 26.7685 6.15234 26.8797C6.15234 27.0515 6.32418 27.102 6.68807 27.102C8.00211 27.102 9.54865 27.0212 9.862 27.0212C10.1754 27.0212 11.3782 27.102 12.0453 27.102C12.298 27.102 12.4699 27.0414 12.4699 26.8797C12.4699 26.7685 12.389 26.7078 12.1868 26.7078H11.9038C11.4287 26.7078 10.8425 26.4551 10.8425 25.8992C10.8425 25.3939 10.984 24.7166 11.2367 24.0192L12.9247 19.0564C12.9854 18.9149 13.0662 18.8341 13.2078 18.8341H19.2423C19.3838 18.8341 19.4343 18.8947 19.495 19.0059L22.1028 25.9093C22.1635 26.0205 22.1635 26.1923 22.1635 26.2732C22.1635 26.5259 21.9916 26.6674 21.9411 26.6674C21.8602 26.6674 21.749 26.7482 21.749 26.8594C21.749 27.0313 22.0523 27.0313 22.588 27.0515C24.5287 27.1121 26.5706 27.1121 26.9951 27.1121C27.3084 27.1121 27.5611 27.0515 27.5611 26.8897C27.5611 26.7482 27.45 26.7179 27.2781 26.7179C26.9951 26.7179 26.5807 26.6876 26.1561 26.5461C25.5699 26.3743 24.7511 25.9296 23.7403 23.433C22.032 19.1676 17.6249 7.58433 17.2004 6.52304C16.8668 5.65379 16.7557 5.51228 16.5838 5.51228L16.5535 5.5022Z" fill="white"/>
</svg>
