<svg width="34" height="34" viewBox="0 0 34 34" fill="none" xmlns="http://www.w3.org/2000/svg">
<path fill-rule="evenodd" clip-rule="evenodd" d="M29.4918 27.4563C23.7201 34.1475 13.6121 34.8853 6.93071 29.1038C0.239193 23.3324 -0.498667 13.2248 5.28312 6.54373C11.0548 -0.147472 21.1628 -0.885297 27.8442 4.89622C34.5357 10.6676 35.2736 20.7752 29.4918 27.4563Z" fill="#474A50"/>
<path d="M29.4918 27.4563C23.7201 34.1475 13.6121 34.8853 6.93071 29.1038C0.239193 23.3324 -0.498667 13.2248 5.28312 6.54373C11.0548 -0.147472 21.1628 -0.885297 27.8442 4.89622C34.5357 10.6676 35.2736 20.7752 29.4918 27.4563Z" stroke="white" stroke-width="0.96" stroke-miterlimit="22.93"/>
<path d="M20.3437 10.7388H5.92969V19.593H20.3437V10.7388Z" fill="white"/>
<path fill-rule="evenodd" clip-rule="evenodd" d="M21.0417 20.1585H14.1885C14.4311 20.765 14.4816 20.7044 14.6332 21.5534L21.9413 21.5129C22.0828 20.199 22.9724 19.1983 24.3268 19.1983C25.1051 19.1983 25.5802 19.5319 25.9946 19.9261C26.5304 20.4416 26.5304 20.7043 26.7022 21.5433H28.5621V17.6114C28.1072 17.4295 27.5917 17.2172 27.0964 17.005C26.2473 16.6411 26.399 16.8837 26.1159 15.974C25.8026 14.9633 25.3881 13.9626 25.1253 12.9721C24.9838 12.6588 25.0445 12.4061 25.0445 12.022H21.2034V19.8755C21.163 20.3607 21.2237 20.0272 21.0316 20.1485M22.2648 13.8616H24.4683L25.3983 16.6815L22.2648 16.631V13.8616Z" fill="white"/>
<path fill-rule="evenodd" clip-rule="evenodd" d="M25.9841 21.9879C26.5704 19.7036 23.1741 19.0567 22.6585 21.1186C22.0824 23.413 25.4383 24.1003 25.9841 21.9879ZM24.0939 20.684C25.2563 20.2898 25.7011 22.1799 24.5993 22.4528C23.7098 22.6752 23.1033 21.8161 23.5076 21.0681C23.6997 20.7143 23.7098 20.8154 24.0838 20.684H24.0939Z" fill="white"/>
<path fill-rule="evenodd" clip-rule="evenodd" d="M10.5692 21.8877C10.9533 24.0204 14.2586 23.5554 13.9554 21.3014C13.8341 20.4322 13.0052 19.7145 11.9641 19.856C11.115 19.9773 10.3771 20.8365 10.5591 21.8775M12.0146 20.6747C13.1265 20.2603 13.6724 22.0797 12.6009 22.4234C12.0248 22.6154 11.5092 22.3122 11.3576 21.8472C11.1251 21.1195 11.5699 20.8365 12.0146 20.6646V20.6747Z" fill="white"/>
<path fill-rule="evenodd" clip-rule="evenodd" d="M5.92969 21.1089C7.71881 21.4425 6.60694 21.5335 8.85092 21.5537C9.02276 21.5537 9.7303 21.584 9.84149 21.4627C9.95268 21.2606 9.95269 21.018 10.0437 20.7754C10.1245 20.5429 10.2458 20.3711 10.3267 20.1689H5.93981V21.1191L5.92969 21.1089Z" fill="white"/>
</svg>
