<svg width="34" height="34" viewBox="0 0 34 34" fill="none" xmlns="http://www.w3.org/2000/svg">
<path fill-rule="evenodd" clip-rule="evenodd" d="M29.4918 27.4563C23.7201 34.1475 13.6121 34.8853 6.93071 29.1038C0.239193 23.3324 -0.498667 13.2248 5.28312 6.54373C11.0548 -0.147463 21.1628 -0.885304 27.8442 4.89621C34.5357 10.6676 35.2736 20.7752 29.4918 27.4563Z" fill="#474A50"/>
<path d="M29.4918 27.4563C23.7201 34.1475 13.6121 34.8853 6.93071 29.1038C0.239193 23.3324 -0.498667 13.2248 5.28312 6.54373C11.0548 -0.147463 21.1628 -0.885304 27.8442 4.89621C34.5357 10.6676 35.2736 20.7752 29.4918 27.4563Z" stroke="white" stroke-width="0.96" stroke-miterlimit="22.93"/>
<path d="M15.3711 10.4153H17.4836C20.4352 10.4153 21.9008 11.1734 21.9008 13.6801C21.9008 16.1867 20.4251 16.9751 17.4836 16.9751H15.3711V10.4153ZM15.3711 19.0573H17.8475C22.4366 19.0573 24.5997 17.3592 24.5997 13.6093C24.5997 9.85944 22.4164 8.25232 17.8475 8.25232H10.8022V10.4153H12.8643V23.6259H10.8022V25.7889H17.4331V23.6259H15.3711V19.0573V19.0573Z" fill="white"/>
</svg>
