<svg width="34" height="34" viewBox="0 0 34 34" fill="none" xmlns="http://www.w3.org/2000/svg">
<path fill-rule="evenodd" clip-rule="evenodd" d="M29.4919 27.4563C23.7202 34.1475 13.6121 34.8853 6.93072 29.1038C0.23921 23.3324 -0.498681 13.2248 5.28311 6.54374C11.0548 -0.147455 21.1628 -0.885311 27.8442 4.89621C34.5358 10.6676 35.2736 20.7752 29.4919 27.4563Z" fill="#474A50"/>
<path d="M29.4919 27.4563C23.7202 34.1475 13.6121 34.8853 6.93072 29.1038C0.23921 23.3324 -0.498681 13.2248 5.28311 6.54374C11.0548 -0.147455 21.1628 -0.88531 27.8442 4.89621C34.5358 10.6676 35.2736 20.7752 29.4919 27.4563Z" stroke="white" stroke-width="0.96" stroke-miterlimit="22.93"/>
<path fill-rule="evenodd" clip-rule="evenodd" d="M17.6855 14.2047C17.1498 14.2249 14.2589 14.144 13.9354 14.2552C13.2582 14.4877 13.1672 15.4378 13.8546 15.7613C14.2589 15.9533 16.9982 15.832 17.6046 15.8623C17.5844 16.1757 17.635 16.6709 17.5137 16.9135C17.0891 17.055 13.612 16.8529 12.7932 16.9438C12.2171 17.0146 12.0452 17.3784 11.8026 17.7929C11.1153 18.935 9.82148 21.2193 9.12403 22.2806C8.63884 22.0987 8.10311 21.472 7.50674 21.5225C6.91036 21.5731 6.47571 22.4221 7.0923 22.9578C7.40565 23.2307 9.57888 24.4639 10.0944 24.8277C10.3471 24.4841 10.62 23.9484 10.8525 23.5744L13.1167 19.7537C14.2083 19.7537 18.757 19.8144 19.4241 19.7335C20.2631 19.6324 20.8999 18.9957 21.0313 18.1669L21.3547 12.5875C21.4558 10.4851 18.9894 9.87865 18.0393 11.4858C17.6653 12.1124 17.8068 13.3658 17.6754 14.2047" fill="white"/>
<path fill-rule="evenodd" clip-rule="evenodd" d="M21.9814 16.2872C22.6182 16.8936 23.0428 17.2777 23.4976 18.1975C24.7712 20.7446 23.8615 23.8375 21.4255 25.3435C19.8082 26.3442 17.7259 26.4452 15.9671 25.5356C15.1585 25.1212 14.6531 24.6259 14.1174 23.9689C13.6827 23.4433 13.1975 22.4022 13.0762 21.5532L12.9044 21.725C12.8539 21.7958 12.8437 21.8362 12.8033 21.907L12.1665 22.9986C12.025 23.2311 12.1059 23.3321 12.3181 23.7465C12.9651 24.9898 13.9253 26.0511 15.1686 26.7182C17.544 27.9816 20.2731 27.8502 22.4059 26.4048C25.5697 24.2519 26.4391 20.0371 24.4478 16.9543C24.1142 16.4388 23.8615 16.0951 23.4167 15.6807C23.164 15.4381 22.3655 14.7003 22.0623 14.6902L21.9814 16.277V16.2872Z" fill="white"/>
<path fill-rule="evenodd" clip-rule="evenodd" d="M19.4239 6.5537C16.998 7.02875 17.6651 10.5361 20.0102 10.1823C20.8997 10.0408 21.6982 9.20188 21.5365 8.07995C21.4051 7.17027 20.4752 6.35155 19.4138 6.5537" fill="white"/>
</svg>
