<svg width="34" height="34" viewBox="0 0 34 34" fill="none" xmlns="http://www.w3.org/2000/svg">
<path d="M29.4918 27.4563C23.7202 34.1475 13.6121 34.8853 6.93072 29.1038C0.239206 23.3324 -0.498677 13.2248 5.28311 6.54373C11.0548 -0.147472 21.1628 -0.885297 27.8442 4.89622C34.5357 10.6676 35.2736 20.7752 29.4918 27.4563Z" stroke="white" stroke-width="0.96" stroke-miterlimit="22.93"/>
<path fill-rule="evenodd" clip-rule="evenodd" d="M29.4918 27.4563C23.7202 34.1475 13.6121 34.8853 6.93072 29.1038C0.239206 23.3324 -0.498677 13.2248 5.28311 6.54373C11.0548 -0.147472 21.1628 -0.885297 27.8442 4.89622C34.5357 10.6676 35.2736 20.7752 29.4918 27.4563Z" fill="#E65B12"/>
<path fill-rule="evenodd" clip-rule="evenodd" d="M14.7441 14.4978C14.2792 16.3576 13.703 18.3892 13.3998 20.34C13.238 21.3811 13.0864 22.3615 12.9348 23.4026C12.8034 24.3527 12.5002 24.191 11.1861 25.2927C10.9233 25.5049 10.4988 25.8385 10.3573 26.1922C10.1349 26.7482 10.3573 27.2637 10.802 27.4355C11.6612 27.7892 12.7124 26.7279 13.1673 26.354C15.3809 24.4942 15.0069 25.414 15.5326 21.5529C17.0589 21.6135 16.4726 21.2699 17.4228 22.3312C19.2523 24.3931 19.0906 23.0084 19.1108 26.4247C19.1108 27.4254 19.6465 28.143 20.435 27.86C21.2032 27.5871 21.1526 26.6269 21.1526 25.7071C21.1526 23.0286 21.5367 23.0084 19.6971 21.3608C19.222 20.9262 18.8278 20.2187 18.2819 19.875L18.8581 17.237C19.6566 18.3892 18.757 18.6318 20.7989 18.7733C21.5873 18.8238 23.336 19.0462 24.0536 18.9957C25.1049 18.9148 25.2666 17.3482 23.9424 17.2168C22.8912 17.1157 21.7996 17.0955 20.7281 16.9944C20.4046 16.1656 20.061 15.1649 19.7678 14.326C19.4039 13.2748 19.2119 12.5572 18.3931 12.0518C17.3015 11.3948 16.5333 11.8294 15.5326 12.2236C12.1161 13.5679 12.9247 12.9211 11.7421 15.8219C11.4388 16.5699 10.5897 18.0051 11.4995 18.4499C12.7023 19.0462 12.9449 17.5705 13.2785 16.7518C13.4604 16.3071 13.6323 15.9028 13.8041 15.458C14.0972 14.7 13.9456 14.7202 14.7543 14.4978" fill="white"/>
<path fill-rule="evenodd" clip-rule="evenodd" d="M23.9934 10.0612L24.0136 15.4486L25.2265 15.4991V10.1017C25.7117 10.3038 26.298 10.8597 26.7731 10.8901C26.4395 10.132 24.8626 5.96768 24.5897 5.67456L22.4165 10.9103L23.9832 10.0612H23.9934Z" fill="white"/>
<path fill-rule="evenodd" clip-rule="evenodd" d="M18.4133 8.40324C16.1491 9.14109 17.261 12.4361 19.505 11.7589C20.3035 11.5163 20.9909 10.6471 20.6371 9.50496C20.3541 8.61549 19.4241 8.0798 18.4234 8.40324" fill="white"/>
</svg>
