<svg width="914" height="452" viewBox="0 0 914 452" fill="none" xmlns="http://www.w3.org/2000/svg">
<path d="M124.518 441.562V442.062H125.018H267.428H267.928V441.562V388.234V387.734H267.428H226.114V319.044H286.82H287.32V318.544V270.064V269.564H286.82H226.114V1V0.5H225.614H171.68H171.404L171.257 0.73329L1.57707 269.797L1.35934 270.143L1.65405 270.425C16.0994 284.268 22.1188 298.698 24.5316 318.604L24.5849 319.044H25.028H172.998V387.734H125.018H124.518V388.234V441.562ZM750.242 441.562V442.062H750.742H893.152H893.652V441.562V388.234V387.734H893.152H851.838V319.044H912.544H913.044V318.544V270.064V269.564H912.544H851.838V1V0.5H851.338H797.404H797.128L796.981 0.73329L627.301 269.797L627.083 270.143L627.378 270.425C641.824 284.268 647.843 298.698 650.256 318.604L650.309 319.044H650.752H798.722V387.734H750.742H750.242V388.234V441.562ZM172.998 269.564H55.0066L172.998 76.1061V269.564ZM595.024 231.886C595.024 156.093 582.445 98.2689 559.351 59.3753C536.241 20.4526 502.603 0.5 460.598 0.5C419.501 0.5 386.168 20.3016 363.134 58.387C340.116 96.4469 327.384 152.757 327.384 225.826C327.384 298.896 340.116 355.205 363.134 393.265C386.168 431.351 419.501 451.152 460.598 451.152C501.088 451.152 534.721 431.352 558.208 394.03C581.683 356.729 595.024 301.933 595.024 231.886ZM461.204 398.036C439.361 398.036 420.713 383.239 407.499 353.866C394.284 324.49 386.56 280.635 386.56 222.796C386.56 164.955 394.132 121.1 407.272 91.7254C420.41 62.3546 439.057 47.556 461.204 47.556C483.949 47.556 502.446 62.7987 515.283 93.2306C528.123 123.668 535.242 169.192 535.242 229.462C535.242 284.267 527.368 326.455 514.154 354.921C500.939 383.389 482.442 398.036 461.204 398.036ZM798.722 269.564H680.731L798.722 76.1061V269.564Z" stroke="#474A51"/>
</svg>
