<svg width="244" height="90" viewBox="0 0 244 90" fill="none" xmlns="http://www.w3.org/2000/svg">
<path fill-rule="evenodd" clip-rule="evenodd" d="M243.665 55.3837V54.3324H157.242V55.3837H243.665ZM86.3447 55.3837H0.29834V54.3324H86.3447V55.3837Z" fill="#DFE1E5"/>
<path fill-rule="evenodd" clip-rule="evenodd" d="M155.291 71.6688L149.445 78.8393V83.3908H151.268V84.5028H143.15V83.3908H145.344V67.0991H143.15V65.9871H150.977V67.0991H149.445V77.071L155.291 69.9005V67.0991H153.76V65.9871H161.587V67.0991H159.393V83.3908H161.587V84.5028H153.468V83.3908H155.291V71.6749V71.6688ZM155.504 60.9069L156.665 61.3323C156.452 61.9339 156.215 62.4322 155.954 62.8272C155.686 63.2222 155.328 63.6536 154.872 64.1094C154.131 64.8507 153.304 65.2214 152.387 65.2214C151.469 65.2214 150.661 64.8143 150.017 63.9939C149.372 63.1735 148.917 62.1587 148.655 60.9373L149.688 60.6456C149.901 61.1743 150.181 61.6422 150.533 62.0494C151.007 62.5598 151.566 62.815 152.198 62.815C152.921 62.815 153.65 62.6023 154.392 62.183C154.848 61.867 155.218 61.4417 155.504 60.913V60.9069Z" fill="#DFE1E5"/>
<path fill-rule="evenodd" clip-rule="evenodd" d="M123.103 83.3907H125.485C126.086 83.3907 126.506 83.3299 126.755 83.2084C127.229 82.9957 127.472 82.5642 127.472 81.914V78.1343C127.472 77.6603 127.411 77.3504 127.289 77.2106L126.864 76.9736C125.71 76.5483 123.941 76.0075 123.115 75.0959V83.4028L123.103 83.3907ZM134.794 83.3907V67.099H132.601V65.9869H141.09V67.099H138.896V83.3907H141.09V84.5027H132.601V83.3907H134.794ZM125.296 65.9869V67.099H123.103V73.6315C124.33 74.7435 127.162 75.8251 128.839 75.8251L129.921 75.7705L130.37 75.7462C130.759 75.7462 131.051 75.8677 131.245 76.1168C131.458 76.3295 131.561 76.7853 131.561 77.4902V82.6493C131.561 83.4454 131.428 83.974 131.166 84.2353C130.99 84.4115 130.583 84.5027 129.951 84.5027H116.807V83.3907H119.001V67.099H116.807V65.9869H125.296Z" fill="#DFE1E5"/>
<path fill-rule="evenodd" clip-rule="evenodd" d="M87.9492 71.6687L82.1095 78.8392V83.3907H83.9325V84.4966H75.814V83.3907H78.0077V67.0929H75.814V65.9869H83.9325V67.0929H82.1095V77.0648L87.9492 69.9003V67.0929H86.1262V65.9869H94.2447V67.0929H92.051V83.3907H94.2447V84.4966H86.1262V83.3907H87.9492V71.6687Z" fill="#DFE1E5"/>
<path fill-rule="evenodd" clip-rule="evenodd" d="M62.4813 83.3906V67.099C61.4543 67.099 59.8744 67.02 59.2788 67.5061C58.9446 67.7795 58.4706 68.928 57.8508 70.9577C57.711 71.4742 57.6746 72.2824 56.9758 72.2824C55.9488 72.2824 56.3438 70.7632 56.0764 69.9307L55.7847 68.8734C55.6267 68.4298 55.0251 67.2326 54.9401 66.625C54.8914 66.2725 55.3472 65.5615 56.1007 65.6223C56.7023 65.6709 57.9177 65.9444 58.8778 65.993H70.5147C71.9184 65.993 73.0487 65.2213 73.784 65.9505C74.8292 66.9957 72.9211 68.2171 72.8178 71.0671C72.7995 71.6261 72.836 72.2824 72.0764 72.2824C70.9401 72.2824 71.2317 68.7883 69.7247 67.5486C68.9894 66.941 67.6951 67.099 66.577 67.099V83.3906H68.7707V84.5027H60.2815V83.3906H62.4752H62.4813Z" fill="#DFE1E5"/>
<path fill-rule="evenodd" clip-rule="evenodd" d="M53.5428 72.5437H46.6154V71.4316H47.776C47.776 65.6405 44.0085 66.1327 42.7567 67.8585C41.201 69.9975 41.6872 74.5611 42.3009 77.3261C42.8053 79.5927 43.6256 81.8532 43.0423 83.8585L42.939 84.2292C44.4703 85.2501 47.7821 81.7681 47.7821 77.9094V77.2471H46.6215V76.135H53.5489V77.2471H52.4673C52.4673 81.6223 47.7335 85.0739 43.498 85.0739C42.465 85.0739 42.3921 84.9949 41.5656 84.7579C41.5656 83.8646 41.6507 83.3906 41.4076 82.6979C40.3685 79.7507 37.0688 78.274 37.0688 73.8076C37.0688 65.1362 47.1684 63.6595 50.8205 67.8038C51.5436 68.6303 52.0905 69.8395 52.4612 71.4256H53.5428V72.5376V72.5437Z" fill="#DFE1E5"/>
<path fill-rule="evenodd" clip-rule="evenodd" d="M102.606 73.7894H108.452V67.0929H106.623V65.9869H114.747V67.0929H112.548V83.3907H114.747V84.4966H106.623V83.3907H108.452V74.9015H102.606V83.3907H104.429V84.4966H96.3105V83.3907H98.5042V67.0929H96.3105V65.9869H104.429V67.0929H102.606V73.7894Z" fill="#DFE1E5"/>
<path fill-rule="evenodd" clip-rule="evenodd" d="M4.57031 65.9872H15.8365C16.5354 65.9872 16.6812 65.9264 17.3679 65.7684C18.3341 65.5436 19.197 65.3977 19.2699 66.6495C19.2881 66.9351 18.5164 68.7399 18.3705 69.5846C18.2429 70.3199 18.3462 71.6993 17.4955 71.6993C17.3193 71.6993 17.1005 71.5413 16.8331 71.2253C16.5779 70.7452 16.3713 68.7278 14.9797 67.6036C14.1411 66.923 11.99 67.0992 10.8536 67.0992V83.3909H13.0473V84.5029H4.57031V83.3909H6.76401V67.0992H4.57031V65.9872Z" fill="#DFE1E5"/>
<path fill-rule="evenodd" clip-rule="evenodd" d="M27.3155 65.2879C27.6801 65.2879 28.0994 65.8591 28.4276 66.1873C31.2775 69.0616 34.486 70.6901 34.486 75.1261C34.486 79.2583 31.8366 81.0935 28.9562 83.9313C26.9934 85.8637 27.2001 85.5659 24.4838 83.2993C21.7432 81.0084 19.8047 79.1368 19.8047 75.5515C19.8047 71.9662 22.0288 69.2196 24.9881 66.8739C25.5411 66.406 26.1002 65.9381 26.6531 65.4702C26.8294 65.3548 26.9995 65.2211 27.3155 65.2879ZM25.5715 68.782C23.8153 69.0008 22.3691 70.9453 22.3691 72.6711C22.3691 75.1747 25.7416 78.0673 27.3945 79.8356C28.0873 80.583 28.148 80.5587 28.5065 81.8227C30.0075 81.3244 31.867 79.1307 31.867 77.7209C31.867 75.7703 28.227 72.2761 26.6592 70.4714C26.3797 70.1371 26.0151 69.572 25.5776 68.7759L25.5715 68.782Z" fill="#DFE1E5"/>
<path fill-rule="evenodd" clip-rule="evenodd" d="M184.38 65.9991V67.1112H182.898C183.445 71.2616 184.216 76.0804 185.225 79.927C186.264 83.8769 186.501 83.4697 187.072 83.2206C188.197 82.7344 188.847 83.2996 188.634 84.2415C188.561 84.5635 188.033 85.7363 187.759 87.0185C187.546 88.0151 187.613 89.2122 186.756 89.2122C185.334 89.2122 186.501 86.1921 184.137 84.9585C183.572 84.6607 182.673 84.5088 181.439 84.5088C179.707 84.5088 176.304 84.3205 175.095 85.0375C173.412 86.0341 173.825 89.2122 172.61 89.2122C171.546 89.2122 172.014 86.6782 171.048 84.8005C169.979 82.7162 172.099 83.1294 172.768 83.1598C173.011 83.172 173.272 82.941 173.533 82.4974C173.643 82.1936 173.777 80.6197 173.825 80.328C174.135 78.499 174.901 76.603 175.672 74.9076C176.742 72.6167 178.632 70.3622 178.632 68.3022C178.632 66.856 177.046 67.1112 175.648 67.1112V65.9991H184.368H184.38ZM182.053 83.3907C180.911 79.1066 180.115 75.7705 179.331 71.4439C177.745 73.5464 175.235 78.6509 175.235 81.671C175.235 83.178 175.837 83.3907 177.453 83.3907H182.053Z" fill="#DFE1E5"/>
<path fill-rule="evenodd" clip-rule="evenodd" d="M191.812 83.3912V75.0114C191.812 69.3539 193.016 65.6289 198.922 65.6289C204.276 65.6289 205.862 70.5997 203.073 72.842C202.179 73.559 200.32 73.8629 199.08 73.4496C198.709 73.3281 198.314 73.1093 197.889 72.7873L196.728 74.2396C201.42 77.9586 204.422 74.8959 204.422 77.7033V83.0691C204.422 84.1811 204.215 84.4971 202.38 84.4971H189.619V83.3851H191.812V83.3912ZM195.908 83.3912H199.159C200.162 83.3912 200.32 82.6741 200.32 81.6228C200.32 76.3361 200.703 78.3232 197.336 75.9958C196.57 75.4671 196.51 75.382 195.908 74.7561V83.3972V83.3912ZM195.908 73.8264L197.439 71.736C198.296 72.1188 198.867 72.5017 199.657 71.6813C200.605 70.703 200.885 66.7409 198.242 66.7409C195.598 66.7409 195.902 71.5112 195.902 73.8264H195.908Z" fill="#DFE1E5"/>
<path fill-rule="evenodd" clip-rule="evenodd" d="M214.649 65.2886C215.013 65.2886 215.433 65.8598 215.761 66.1879C218.611 69.0561 221.813 70.6847 221.813 75.1207C221.813 79.2468 219.17 81.0819 216.289 83.9198C214.327 85.8522 214.539 85.5544 211.823 83.2878C209.083 81.0029 207.144 79.1313 207.144 75.5461C207.144 71.9608 209.368 69.2202 212.327 66.8746C212.88 66.4067 213.44 65.9388 213.992 65.4769C214.169 65.3615 214.339 65.2278 214.655 65.2946L214.649 65.2886ZM212.905 68.7766C211.149 68.9954 209.708 70.9399 209.708 72.6596C209.708 75.1632 213.081 78.0497 214.728 79.8241C215.421 80.5654 215.481 80.5472 215.84 81.8051C217.341 81.3068 219.194 79.1192 219.194 77.7094C219.194 75.7587 215.554 72.2707 213.986 70.4659C213.707 70.1317 213.342 69.5666 212.905 68.7766Z" fill="#DFE1E5"/>
<path fill-rule="evenodd" clip-rule="evenodd" d="M229.221 77.4481V83.3972H231.414V84.5093H222.986V83.3972H225.18L225.204 69.7064C225.757 68.3695 226.553 67.4641 227.714 66.7349C231.542 64.3285 238.257 65.8841 238.257 70.9217C238.257 73.6319 236.507 76.0505 233.79 76.0505C232.636 76.0505 232.156 75.6312 231.044 75.0721L229.221 77.4542V77.4481ZM229.221 75.8378L230.91 73.717C231.499 74.1971 232.314 74.3976 232.946 73.638C233.881 72.5077 233.693 69.2567 233.207 67.9806C232.569 66.3217 229.64 65.8294 229.3 69.4329C229.154 70.9886 229.221 74.2396 229.221 75.8378Z" fill="#DFE1E5"/>
<path fill-rule="evenodd" clip-rule="evenodd" d="M95.1554 19.8526L94.0919 20.752L93.6666 22.8424L95.4896 21.2989L95.9149 19.2085L95.1554 19.8526ZM93.1136 25.4614L93.1743 24.2279L91.7888 22.2833L91.6855 24.4102L93.071 26.3547L93.1136 25.4614ZM132.734 52.4785L130.467 51.7311L128.462 52.4603C129.003 52.6426 129.556 52.8188 130.728 53.2138L132.734 52.4846V52.4785ZM138.063 3.12951L135.681 3.31181C135.906 3.46373 137.267 4.45423 137.449 4.50285L139.831 4.32055C139.242 3.92556 138.653 3.53057 138.063 3.12951ZM133.633 0L135.225 1.87771L137.619 2.44892L136.027 0.571212L133.633 0V0ZM135.383 50.6555L136.167 50.7892L134.289 51.804L131.938 51.3969L133.815 50.3821L135.383 50.6555ZM138.306 48.7292L136.921 48.6259L135.152 49.8169C135.456 49.8412 137.346 50.0478 137.528 49.9992L139.297 48.8082L138.306 48.7353V48.7292ZM136.586 48.1337L134.818 49.3247L135.547 47.052L137.316 45.861L136.586 48.1337ZM142.189 46.3046L139.807 46.4687L138.227 47.8967C139.023 47.842 139.813 47.7873 140.609 47.7326L142.189 46.3046ZM139.406 46.0251L137.826 47.4531L138.221 45.1014L139.801 43.6673L139.406 46.019V46.0251ZM144.729 43.4607L142.396 43.9651L141.041 45.6058L143.374 45.1075L144.735 43.4668L144.729 43.4607ZM141.94 43.5822L140.579 45.2229L140.634 42.8348L141.995 41.1941L141.94 43.5761V43.5822ZM146.461 40.5803L144.62 41.1637L143.423 42.932L145.695 42.2089L146.893 40.4406L146.461 40.5803ZM144.128 40.8355L142.931 42.5978L142.76 40.2157L143.957 38.4535L144.128 40.8355ZM148.637 37.0437L146.491 38.0889L145.562 40.0091L147.707 38.9639L148.637 37.0437ZM145.957 37.8276L145.027 39.7478L144.517 37.4204L145.446 35.5002L145.957 37.8336V37.8276ZM148.479 34.4975L147.95 34.8257L147.215 36.8249L149.244 35.5792L149.98 33.5799L148.479 34.5036V34.4975ZM147.391 34.6191L146.649 32.3524L145.914 34.3517L146.656 36.6183L147.391 34.6191ZM150.034 30.4687L148.971 31.3619L148.539 33.4523L150.362 31.9149L150.794 29.8245L150.034 30.4687ZM148.387 31.2465L147.956 33.3369C147.597 32.6259 147.245 31.9149 146.886 31.2039L147.318 29.1136L148.387 31.2465ZM151.116 26.0084L151.006 28.1352L149.433 29.9278L149.542 27.801L151.116 26.0084ZM148.953 27.7706L148.843 29.8975L147.464 27.9529C147.409 27.7706 147.561 26.136 147.573 25.82L148.953 27.7706ZM150.071 23.6384C149.493 24.4527 149.645 24.1063 149.712 25.4918L149.755 26.3608L151.134 24.4163L151.031 22.2894L150.065 23.6445L150.071 23.6384ZM149.056 24.2583L147.488 22.4595L147.591 24.5864C147.664 24.7626 148.946 26.142 149.159 26.3851L149.056 24.2583ZM149.937 19.3908L150.387 18.4975L150.812 20.5879L149.736 22.7208L149.311 20.6305L149.937 19.3908ZM148.728 20.752L149.153 22.8424L147.33 21.2989L146.905 19.2085L148.728 20.752ZM149.05 15.7509C148.472 17.2518 148.442 16.9176 148.685 17.7015L149.147 19.1842L149.998 16.954L149.366 14.9183L149.05 15.7448V15.7509ZM147.944 17.3247L145.975 15.9757L146.607 18.0114C147.209 18.4246 147.889 18.8925 148.576 19.3604L147.944 17.3247ZM147.567 12.4026L147.786 11.4303L148.709 13.3505L148.193 15.6779L147.269 13.7577L147.567 12.4026ZM146.735 14.019L144.589 12.9738L145.513 14.894L147.658 15.9392L146.735 14.019ZM145.787 9.2123L145.622 10.5917L146.728 12.4087L147.014 10.0387L145.908 8.2218L145.787 9.2123ZM145.112 10.9016L146.224 12.7246L143.988 11.8921L142.876 10.0752L145.112 10.9077V10.9016ZM143.502 5.60273C143.52 6.28333 143.538 6.96392 143.55 7.64451L144.912 9.28522L144.851 6.90315L143.49 5.26244V5.60881H143.496L143.502 5.60273ZM143.095 8.02127L144.456 9.66198L142.122 9.16369L140.761 7.52298L143.095 8.02127ZM140.731 2.61907L141.132 4.97076L142.712 6.39878L142.311 4.04709L140.731 2.61907ZM140.731 5.41436L142.311 6.84238L139.929 6.67831L138.349 5.25028L140.731 5.41436ZM138.215 2.09039L137.656 0.358526L139.424 1.54956L140.153 3.82226C139.564 3.42727 138.975 3.02621 138.385 2.63122L138.209 2.09039H138.215ZM133.53 49.8534L134.478 47.6658L132.6 48.6806L131.652 50.8682L133.53 49.8534ZM130.267 51.166L128.261 51.8891L128.881 50.8925L129.519 49.8595L131.525 49.1303L130.267 51.1599V51.166ZM103.019 46.4565L100.637 46.2924L102.217 47.7205C103.013 47.7752 103.803 47.8298 104.599 47.8845L103.019 46.4565ZM100.825 41.188L100.88 43.5701L102.241 45.2108L102.186 42.8287L100.825 41.188ZM108.725 48.5347L109.296 49.8473L111.174 50.8621L110.226 48.6745L108.348 47.6597L108.725 48.5347ZM109.01 50.376L110.882 51.3908L108.53 51.7979L106.653 50.7831L109.004 50.3699L109.01 50.376ZM97.3308 35.7129C97.2093 36.2598 97.0877 36.8188 96.869 37.8215L97.7987 39.7417L98.3152 37.4144L97.3855 35.4941L97.3369 35.7189L97.3308 35.7129ZM105.85 46.9123L106.239 48.1215L108.008 49.3126L107.278 47.0399L105.51 45.8488L105.85 46.9123ZM98.7285 40.4284L98.6981 40.8234L99.8952 42.5856L100.065 40.2036L98.8682 38.4413L98.7224 40.4223L98.7285 40.4284ZM98.2059 41.1576L99.403 42.9259L97.1303 42.2028L95.9332 40.4345L98.2059 41.1576ZM103.304 45.3323L103.025 43.6612L104.605 45.0953L105 47.447L104.191 46.7178C103.371 45.9764 103.462 46.2864 103.304 45.3323ZM100.43 43.9529L101.791 45.5936L99.4577 45.0953L98.0965 43.4546L100.43 43.959V43.9529ZM105.911 48.6137L107.679 49.8048L105.303 49.9871L103.535 48.796L105.911 48.6137ZM96.3342 38.0767L97.264 39.997L95.1189 38.9518L94.1892 37.0315L96.3342 38.0767ZM111.641 49.6832L112.559 51.166L114.564 51.8891L113.307 49.8595L111.301 49.1303L111.641 49.6772V49.6832ZM112.359 51.725L111.04 52.1625L110.098 52.4785L112.103 53.2077L114.364 52.4542L112.359 51.725ZM95.0764 29.9704C94.3593 31.3984 94.3836 30.9609 94.6024 32.0182L94.8698 33.3247L95.9392 31.1918L95.5078 29.1014L95.0764 29.9643V29.9704ZM92.5363 31.9696L94.2864 33.4463L93.8549 31.3559L92.0319 29.8185C92.0988 30.1466 92.354 31.8177 92.5363 31.9696ZM94.8819 34.8196L93.6969 34.0904L92.8462 33.5678C92.9617 33.8838 93.4964 35.5731 93.6666 35.6217C94.2195 35.962 94.7664 36.2962 95.6172 36.8188L94.8819 34.8196ZM96.1823 32.3464L96.9176 34.3456L96.1762 36.6122L95.441 34.613L96.1823 32.3464ZM94.6874 23.2009L95.3437 22.4474L95.2404 24.5742C95.1675 24.7505 93.8792 26.136 93.6726 26.373C93.7091 25.662 93.7456 24.951 93.7759 24.2461L94.6874 23.2009ZM93.2898 27.7888L93.3992 29.9157L91.8253 28.1231L91.7159 25.9962L93.2898 27.7888ZM107.6 1.87771L109.193 0L106.798 0.571212L105.206 2.44892L107.6 1.87771ZM95.2526 25.82L95.362 27.9468L93.9825 29.8975L93.8732 27.7706L95.2526 25.82ZM97.3369 13.4174C95.8177 14.1588 96.2188 13.7516 95.599 15.0399L95.1614 15.9453L97.3065 14.9001L98.2302 12.9799L97.3369 13.4174ZM102.441 5.39613C101.901 5.43259 101.998 5.50551 101.493 5.95518L100.503 6.84846L102.885 6.68439L104.465 5.25636L102.435 5.39613H102.441ZM104.428 2.6373L105.158 0.364603L103.389 1.55564L102.66 3.82833L104.428 2.6373ZM97.1971 10.5978L96.9115 8.22788L95.7995 10.0448L96.0851 12.4147L97.1911 10.5978H97.1971ZM101.694 4.97683L100.114 6.40486C100.169 6.08887 100.424 4.22332 100.515 4.05317L102.095 2.62514L101.694 4.97683ZM99.9438 10.0752L98.8318 11.8921L96.5955 12.7246L97.7076 10.9016L99.9438 10.0691V10.0752ZM96.8386 15.9757L96.2066 18.0114L94.2378 19.3604L94.493 18.534L94.8698 17.3308L96.8386 15.9818V15.9757ZM95.5503 13.7638L94.6206 15.684L94.1041 13.3566L95.0338 11.4364L95.5503 13.7638ZM99.2632 7.64451L99.324 5.25636L97.9628 6.89708L97.902 9.27915L99.2632 7.63843V7.64451ZM93.5086 20.6305L93.0832 22.7208L92.0076 20.5879C91.9833 20.3995 92.354 18.8864 92.433 18.4975L93.5086 20.6305ZM101.08 7.72959L102.052 7.52298L100.691 9.16369L98.3578 9.66198L99.719 8.02127L101.08 7.72959ZM94.2985 17.1485L93.4478 14.9183L92.8158 16.954L93.6666 19.1842L94.2985 17.1485ZM107.139 3.30573L105.37 4.49677L102.988 4.31447L104.757 3.12343L107.139 3.30573Z" fill="#DFE1E5"/>
<path fill-rule="evenodd" clip-rule="evenodd" d="M127.119 7.79008C126.834 7.79008 126.603 8.021 126.603 8.3066C126.603 8.59221 126.834 8.82313 127.119 8.82313H136.283C136.569 8.82313 136.8 8.59221 136.8 8.3066C136.8 8.021 136.569 7.79008 136.283 7.79008H127.119ZM115.361 2.9834C115.075 2.9834 114.844 3.21431 114.844 3.49992C114.844 3.78553 115.075 4.01644 115.361 4.01644H127.466C127.751 4.01644 127.982 3.78553 127.982 3.49992C127.982 3.21431 127.751 2.9834 127.466 2.9834H115.361ZM102.442 12.5968C102.156 12.5968 101.925 12.8277 101.925 13.1133C101.925 13.3989 102.156 13.6298 102.442 13.6298H107.874C108.16 13.6298 108.391 13.3989 108.391 13.1133C108.391 12.8277 108.16 12.5968 107.874 12.5968H102.442ZM116.983 12.5968C116.698 12.5968 116.467 12.8277 116.467 13.1133C116.467 13.3989 116.698 13.6298 116.983 13.6298H120.058C120.344 13.6298 120.575 13.3989 120.575 13.1133C120.575 12.8277 120.344 12.5968 120.058 12.5968H116.983ZM125.843 12.5968C125.558 12.5968 125.327 12.8277 125.327 13.1133C125.327 13.3989 125.558 13.6298 125.843 13.6298H140.385C140.671 13.6298 140.901 13.3989 140.901 13.1133C140.901 12.8277 140.671 12.5968 140.385 12.5968H125.843ZM100.139 17.4035C99.8532 17.4035 99.6223 17.6344 99.6223 17.92C99.6223 18.2056 99.8532 18.4365 100.139 18.4365H107.868C108.154 18.4365 108.385 18.2056 108.385 17.92C108.385 17.6344 108.154 17.4035 107.868 17.4035H100.139ZM116.983 17.4035C116.698 17.4035 116.467 17.6344 116.467 17.92C116.467 18.2056 116.698 18.4365 116.983 18.4365H118.916C119.201 18.4365 119.432 18.2056 119.432 17.92C119.432 17.6344 119.201 17.4035 118.916 17.4035H116.983ZM133.664 17.4035C133.378 17.4035 133.148 17.6344 133.148 17.92C133.148 18.2056 133.378 18.4365 133.664 18.4365H142.688C142.974 18.4365 143.205 18.2056 143.205 17.92C143.205 17.6344 142.974 17.4035 142.688 17.4035H133.664ZM99.0815 22.2101C98.7959 22.2101 98.5649 22.4411 98.5649 22.7267C98.5649 23.0123 98.7959 23.2432 99.0815 23.2432H107.868C108.154 23.2432 108.385 23.0123 108.385 22.7267C108.385 22.4411 108.154 22.2101 107.868 22.2101H99.0815ZM116.983 22.2101C116.698 22.2101 116.467 22.4411 116.467 22.7267C116.467 23.0123 116.698 23.2432 116.983 23.2432H120.757C121.043 23.2432 121.274 23.0123 121.274 22.7267C121.274 22.4411 121.043 22.2101 120.757 22.2101H116.983ZM132.698 22.2101C132.412 22.2101 132.181 22.4411 132.181 22.7267C132.181 23.0123 132.412 23.2432 132.698 23.2432H143.745C144.031 23.2432 144.262 23.0123 144.262 22.7267C144.262 22.4411 144.031 22.2101 143.745 22.2101H132.698ZM99.0875 27.0168C98.8019 27.0168 98.571 27.2477 98.571 27.5333C98.571 27.8189 98.8019 28.0499 99.0875 28.0499H105.201C105.486 28.0499 105.717 27.8189 105.717 27.5333C105.717 27.2477 105.486 27.0168 105.201 27.0168H99.0875ZM133.585 27.0168C133.299 27.0168 133.069 27.2477 133.069 27.5333C133.069 27.8189 133.299 28.0499 133.585 28.0499H143.745C144.031 28.0499 144.262 27.8189 144.262 27.5333C144.262 27.2477 144.031 27.0168 143.745 27.0168H133.585ZM100.139 31.8235C99.8532 31.8235 99.6223 32.0544 99.6223 32.34C99.6223 32.6256 99.8532 32.8565 100.139 32.8565H116.838C117.123 32.8565 117.354 32.6256 117.354 32.34C117.354 32.0544 117.123 31.8235 116.838 31.8235H100.139ZM122.92 31.8235C122.635 31.8235 122.404 32.0544 122.404 32.34C122.404 32.6256 122.635 32.8565 122.92 32.8565H125.46C125.746 32.8565 125.977 32.6256 125.977 32.34C125.977 32.0544 125.746 31.8235 125.46 31.8235H122.92ZM134.679 31.8235C134.393 31.8235 134.162 32.0544 134.162 32.34C134.162 32.6256 134.393 32.8565 134.679 32.8565H142.688C142.974 32.8565 143.205 32.6256 143.205 32.34C143.205 32.0544 142.974 31.8235 142.688 31.8235H134.679ZM102.436 36.6302C102.15 36.6302 101.919 36.8611 101.919 37.1467C101.919 37.4323 102.15 37.6632 102.436 37.6632H113.003C113.289 37.6632 113.52 37.4323 113.52 37.1467C113.52 36.8611 113.289 36.6302 113.003 36.6302H102.436ZM138.854 36.6302C138.568 36.6302 138.337 36.8611 138.337 37.1467C138.337 37.4323 138.568 37.6632 138.854 37.6632H140.385C140.671 37.6632 140.901 37.4323 140.901 37.1467C140.901 36.8611 140.671 36.6302 140.385 36.6302H138.854ZM106.538 41.4369C106.252 41.4369 106.021 41.6678 106.021 41.9534C106.021 42.239 106.252 42.4699 106.538 42.4699H114.164C114.449 42.4699 114.68 42.239 114.68 41.9534C114.68 41.6678 114.449 41.4369 114.164 41.4369H106.538ZM120.696 41.4369C120.411 41.4369 120.18 41.6678 120.18 41.9534C120.18 42.239 120.411 42.4699 120.696 42.4699H131.252C131.537 42.4699 131.768 42.239 131.768 41.9534C131.768 41.6678 131.537 41.4369 131.252 41.4369H120.696ZM115.355 46.2436C115.069 46.2436 114.838 46.4745 114.838 46.7601C114.838 47.0457 115.069 47.2766 115.355 47.2766H127.46C127.745 47.2766 127.976 47.0457 127.976 46.7601C127.976 46.4745 127.745 46.2436 127.46 46.2436H115.355Z" fill="#DFE1E5"/>
<path fill-rule="evenodd" clip-rule="evenodd" d="M107.261 6.71468H120.976C121.985 6.71468 121.772 6.69645 122.841 6.4473C124.039 6.16778 125.066 5.96117 125.163 7.52288C125.187 7.97864 124.3 9.74696 124.069 11.096C123.868 12.2506 124.02 13.7211 123.006 13.6725C122.55 13.6543 122.404 13.5145 122.203 13.0952C121.997 12.6699 121.602 10.0143 119.949 8.68354C118.94 7.86926 116.303 8.06979 114.923 8.06979V26.701H117.597V28.0561H107.261V26.701H109.934V8.06371H107.261V6.7086V6.71468ZM131.604 15.7325H120.976V17.0876C122.07 17.0876 123.795 16.9114 124.355 17.6345C124.932 18.382 124.421 20.1199 124.032 21.0132C123.51 22.2103 121.76 24.9691 121.006 26.5856L120.332 28.0683C119.919 28.8279 118.904 31.7204 118.752 32.5833C118.691 32.9357 118.533 34.8499 118.399 35.2266C118.077 35.7614 117.767 36.0288 117.464 36.0288L116.303 35.9012C116.005 35.8708 115.683 35.9558 115.434 36.126C115.106 36.3508 115.015 36.6668 115.045 36.837C115.118 37.238 115.197 37.6513 115.367 38.028C116.005 39.4682 116.4 42.6463 116.528 42.8286C116.765 43.3391 117.099 43.4059 117.269 43.4059C118.162 43.4059 118.351 41.9596 118.557 41.2487C119.572 37.7424 121.116 37.6756 124.737 37.6756C126.682 37.6756 129.903 37.4872 131.306 38.2225C132.467 38.8241 133.196 40.0819 133.494 41.99C133.543 42.6159 133.743 43.4059 134.491 43.4059C135.621 43.4059 135.511 41.1818 136.034 39.4135C136.429 38.0827 137.164 37.232 136.532 36.3934C136.052 35.6945 135.329 36.1868 134.515 36.1199C133.694 36.0531 133.372 34.9167 132.625 32.0971C131.397 27.412 130.456 22.1435 129.793 17.0876H131.598V15.7325H131.604ZM123.17 36.3144H128.772L126.907 29.6118L125.454 22.3683C123.522 24.9327 120.465 30.5476 120.465 34.224C120.465 36.0592 121.201 36.3144 123.17 36.3144Z" fill="#DFE1E5"/>
<path fill-rule="evenodd" clip-rule="evenodd" d="M125.454 53.7489C123.662 53.3722 122.258 51.9684 121.881 50.1758C121.778 49.6836 121.055 49.6836 120.952 50.1758C120.575 51.9684 119.171 53.3782 117.378 53.7489C116.886 53.8522 116.886 54.5753 117.378 54.6787C119.177 55.0554 120.581 56.4591 120.952 58.2578C121.055 58.7501 121.778 58.7501 121.881 58.2578C122.258 56.4591 123.662 55.0554 125.454 54.6787C125.947 54.5753 125.947 53.8522 125.454 53.7489Z" fill="#DFE1E5"/>
<path fill-rule="evenodd" clip-rule="evenodd" d="M153.906 24.4585C157.224 26.1357 158.111 27.5516 158.889 30.0491C158.889 30.0491 157.339 23.7962 161.016 20.3446C161.016 20.3446 170.416 44.1896 142.913 49.5068C149.664 43.5516 153.918 34.8376 153.918 25.1331C153.918 24.9082 153.918 24.6834 153.912 24.4585H153.906ZM151.433 48.7776C148.048 51.1171 138.24 54.119 134.163 55.0548C134.163 55.0548 146.389 55.389 146.881 58.6219C146.881 58.6219 147.732 57.2242 146.863 56.2033C146.863 56.2033 148.564 57.9473 151.202 57.917C151.202 57.917 150.789 55.9603 148.388 54.6477C155.942 54.1676 155.85 49.5493 155.85 49.5493C153.231 49.7377 151.943 51.6093 151.943 51.6093C152.569 50.5216 151.427 48.7776 151.427 48.7776H151.433ZM158.992 43.9344C156.166 43.9344 156.166 48.2307 158.992 48.2307C161.818 48.2307 161.818 43.9344 158.992 43.9344ZM176.76 33.6283C178.146 33.6283 179.264 34.7525 179.264 36.1319C179.264 37.5113 178.14 38.6355 176.76 38.6355C175.381 38.6355 174.257 37.5113 174.257 36.1319C174.257 34.7525 175.381 33.6283 176.76 33.6283ZM167.329 35.026C164.564 35.026 162.316 37.2683 162.316 40.0392C162.316 42.8102 164.558 45.0525 167.329 45.0525C170.1 45.0525 172.343 42.8102 172.343 40.0392C172.343 37.2683 170.1 35.026 167.329 35.026ZM176.183 42.081C177.459 41.449 184.381 39.7597 186.228 42.3302C186.228 42.3302 186.131 40.7441 185.073 39.9603C185.073 39.9603 187.018 41.2424 188.744 40.5375C188.744 40.5375 184.672 34.4426 176.189 42.081H176.183ZM158.482 50.3454C158.482 50.3454 185.438 46.6933 188.282 51.9071C188.282 51.9071 188.92 48.8809 187.735 46.8816C187.735 46.8816 190.002 50.2603 192.918 49.8045C192.918 49.8045 192.068 35.901 158.482 50.3454ZM149.038 45.6541C158.33 40.5497 158.84 34.3454 159.029 32.334C157.048 37.9185 155.516 39.626 154.258 40.6591C155.838 37.2136 155.34 34.4851 155.34 34.4851C154.696 41.0358 149.044 45.6541 149.044 45.6541H149.038Z" fill="#DFE1E5"/>
<path fill-rule="evenodd" clip-rule="evenodd" d="M88.9212 24.4585C85.6033 26.1357 84.7161 27.5516 83.9383 30.0491C83.9383 30.0491 85.4879 23.7962 81.8115 20.3446C81.8115 20.3446 72.4108 44.1896 99.914 49.5068C93.1688 43.5516 88.9091 34.8376 88.9091 25.1331C88.9091 24.9082 88.9091 24.6834 88.9151 24.4585H88.9212ZM91.3945 48.7776C94.7792 51.1171 104.587 54.119 108.664 55.0548C108.664 55.0548 96.432 55.389 95.9459 58.6219C95.9459 58.6219 95.0952 57.2242 95.9641 56.2033C95.9641 56.2033 94.2627 57.9473 91.6254 57.917C91.6254 57.917 92.0386 55.9603 94.4389 54.6477C86.8855 54.1676 86.9767 49.5493 86.9767 49.5493C89.5957 49.7377 90.884 51.6093 90.884 51.6093C90.2581 50.5216 91.4005 48.7776 91.4005 48.7776H91.3945ZM83.835 43.9344C86.6607 43.9344 86.6607 48.2307 83.835 48.2307C81.0093 48.2307 81.0093 43.9344 83.835 43.9344ZM66.0667 33.6283C64.6812 33.6283 63.5631 34.7525 63.5631 36.1319C63.5631 37.5113 64.6873 38.6355 66.0667 38.6355C67.4461 38.6355 68.5703 37.5113 68.5703 36.1319C68.5703 34.7525 67.4461 33.6283 66.0667 33.6283ZM75.4978 35.026C78.2627 35.026 80.511 37.2683 80.511 40.0392C80.511 42.8102 78.2687 45.0525 75.4978 45.0525C72.7268 45.0525 70.4845 42.8102 70.4845 40.0392C70.4845 37.2683 72.7268 35.026 75.4978 35.026ZM66.644 42.081C65.3679 41.449 58.4465 39.7597 56.5992 42.3302C56.5992 42.3302 56.6964 40.7441 57.7537 39.9603C57.7537 39.9603 55.8092 41.2424 54.0895 40.5375C54.0895 40.5375 58.1609 34.4426 66.644 42.081ZM84.3455 50.3454C84.3455 50.3454 57.3891 46.6933 54.5452 51.9071C54.5452 51.9071 53.9072 48.8809 55.0921 46.8816C55.0921 46.8816 52.8255 50.2603 49.9087 49.8045C49.9087 49.8045 50.7594 35.901 84.3455 50.3454ZM93.7887 45.6541C84.4974 40.5497 83.9869 34.3454 83.7986 32.334C85.7796 37.9185 87.3109 39.626 88.5688 40.6591C86.9888 37.2136 87.4871 34.4851 87.4871 34.4851C88.1373 41.0358 93.7826 45.6541 93.7826 45.6541H93.7887Z" fill="#DFE1E5"/>
</svg>
