<svg width="87" height="79" viewBox="0 0 87 79" fill="none" xmlns="http://www.w3.org/2000/svg">
<path d="M34.4435 69.9548H35.1095V72.1847C35.0516 72.204 34.9743 72.2233 34.8682 72.2426C34.762 72.2619 34.646 72.2909 34.5109 72.3102C34.3757 72.3295 34.231 72.3488 34.0669 72.3681C33.9028 72.3874 33.7485 72.3874 33.5748 72.3874C33.2369 72.3874 32.9375 72.3294 32.6576 72.2233C32.3873 72.1171 32.146 71.953 31.9529 71.7406C31.7598 71.5282 31.6052 71.2676 31.499 70.9684C31.3928 70.6595 31.335 70.312 31.335 69.9065C31.335 69.5011 31.3928 69.1536 31.5183 68.8447C31.6438 68.5358 31.8082 68.2751 32.0109 68.0628C32.2136 67.8504 32.4549 67.6959 32.7349 67.5801C33.0148 67.4739 33.3043 67.416 33.6229 67.416C33.8352 67.416 34.0281 67.4257 34.1923 67.4547C34.3564 67.4836 34.5013 67.5126 34.6268 67.5512C34.7427 67.5898 34.839 67.6284 34.9162 67.6573C34.9935 67.696 35.0419 67.7249 35.0708 67.7442L34.8583 68.3041C34.7231 68.2172 34.5496 68.1497 34.3275 68.0917C34.1055 68.0338 33.8833 68.0048 33.6516 68.0048C33.4103 68.0048 33.1883 68.0531 32.9856 68.14C32.7829 68.2269 32.619 68.3524 32.4742 68.5165C32.3391 68.6806 32.2234 68.8833 32.1461 69.115C32.0689 69.3467 32.0302 69.6169 32.0302 69.9065C32.0302 70.1961 32.0592 70.4471 32.1268 70.6788C32.1944 70.9105 32.291 71.1132 32.4261 71.2773C32.5613 71.4414 32.7249 71.5765 32.9276 71.6634C33.1304 71.7503 33.3625 71.7986 33.6328 71.7986C33.8258 71.7986 33.9897 71.7889 34.1249 71.7696C34.26 71.7503 34.3563 71.731 34.4143 71.7117V69.9355L34.4435 69.9548Z" fill="#5C5F68"/>
<path d="M37.4741 68.0721C37.1942 68.0721 36.972 68.0721 36.8175 68.0914V69.8869H37.2903C37.5219 69.8869 37.7248 69.8773 37.9082 69.8483C38.0916 69.829 38.246 69.7807 38.3715 69.7132C38.497 69.6456 38.5938 69.5587 38.6614 69.4429C38.729 69.3271 38.7675 69.1726 38.7675 68.9795C38.7675 68.7961 38.729 68.6514 38.6614 68.5355C38.5938 68.4197 38.4973 68.3231 38.3814 68.2555C38.2656 68.188 38.1303 68.1397 37.9662 68.1108C37.8117 68.0818 37.638 68.0721 37.4642 68.0721M38.4776 70.302C38.5548 70.3985 38.6417 70.5144 38.7576 70.6592C38.8734 70.804 38.9896 70.9777 39.1054 71.1515C39.2213 71.3349 39.3464 71.5183 39.4622 71.721C39.5781 71.9141 39.6747 72.1071 39.7615 72.2905H39.0281C38.9412 72.1168 38.835 71.943 38.7288 71.7596C38.6226 71.5859 38.5166 71.4121 38.4008 71.248C38.2946 71.0839 38.1784 70.9295 38.0722 70.7943C37.966 70.6495 37.8697 70.5337 37.7828 70.4275C37.7249 70.4275 37.667 70.4275 37.5995 70.4275H36.8076V72.2905H36.1416V67.5991C36.325 67.5509 36.5378 67.5219 36.7694 67.5026C37.0011 67.4833 37.2132 67.4736 37.4062 67.4736C38.0723 67.4736 38.584 67.5991 38.9315 67.8501C39.279 68.1011 39.4528 68.4776 39.4528 68.9795C39.4528 69.2981 39.3657 69.5684 39.2016 69.7904C39.0375 70.0124 38.7869 70.1861 38.4587 70.2923L38.4776 70.302Z" fill="#5C5F68"/>
<path d="M40.9879 69.9065C40.9879 70.1961 41.0268 70.4568 41.0944 70.6981C41.1716 70.9298 41.268 71.1325 41.4031 71.2966C41.5383 71.4607 41.7021 71.5862 41.8952 71.6827C42.0883 71.7696 42.3105 71.8178 42.5518 71.8178C42.7931 71.8178 43.0153 71.7696 43.2084 71.6827C43.4014 71.5958 43.5653 71.4704 43.7005 71.2966C43.8356 71.1325 43.9421 70.9298 44.0097 70.6981C44.0869 70.4664 44.1157 70.1961 44.1157 69.9065C44.1157 69.6169 44.0772 69.3563 44.0097 69.115C43.9324 68.8833 43.8356 68.6806 43.7005 68.5165C43.5653 68.3524 43.4014 68.2269 43.2084 68.14C43.0153 68.0531 42.8028 68.0048 42.5518 68.0048C42.3008 68.0048 42.0883 68.0531 41.8952 68.14C41.7021 68.2269 41.5383 68.3524 41.4031 68.5165C41.268 68.6806 41.162 68.8833 41.0944 69.115C41.0172 69.3467 40.9879 69.6169 40.9879 69.9065ZM40.2832 69.9065C40.2832 69.5011 40.3411 69.1439 40.4666 68.8254C40.592 68.5165 40.7564 68.2559 40.9591 68.0435C41.1715 67.8311 41.4128 67.6767 41.6831 67.5705C41.963 67.4643 42.2526 67.416 42.5711 67.416C42.8897 67.416 43.1695 67.474 43.4398 67.5705C43.7101 67.6767 43.9516 67.8311 44.1544 68.0435C44.3571 68.2559 44.5209 68.5165 44.6464 68.8254C44.7719 69.1343 44.8298 69.5011 44.8298 69.9065C44.8298 70.312 44.7719 70.6691 44.6464 70.9877C44.5209 71.2966 44.3571 71.5572 44.1544 71.7696C43.9516 71.982 43.7101 72.1364 43.4398 72.2426C43.1695 72.3488 42.88 72.3971 42.5711 72.3971C42.2622 72.3971 41.963 72.3488 41.6831 72.2426C41.4032 72.1364 41.1618 71.982 40.9591 71.7696C40.7467 71.5572 40.5824 71.2966 40.4666 70.9877C40.3411 70.6788 40.2832 70.312 40.2832 69.9065Z" fill="#5C5F68"/>
<path d="M47.6002 72.3973C47.2913 72.3973 47.0211 72.3491 46.7895 72.2525C46.5578 72.156 46.3743 72.0209 46.2295 71.8568C46.0847 71.6927 45.9787 71.4899 45.9014 71.2582C45.8339 71.0265 45.7949 70.7853 45.7949 70.515V67.5225H46.4609V70.4377C46.4609 70.9107 46.5672 71.2583 46.7796 71.4803C46.9919 71.6927 47.2623 71.8085 47.6002 71.8085C47.7739 71.8085 47.9284 71.7795 48.0635 71.7313C48.2083 71.683 48.3243 71.5961 48.4208 71.4899C48.5173 71.3838 48.6039 71.239 48.6522 71.0652C48.7101 70.8914 48.7295 70.6887 48.7295 70.4474V67.5321H49.3955V70.5246C49.3955 70.7949 49.357 71.0362 49.2895 71.2679C49.2219 71.4996 49.1062 71.6926 48.9614 71.8664C48.8166 72.0305 48.6235 72.1657 48.4015 72.2622C48.1794 72.3587 47.9093 72.4069 47.5907 72.4069" fill="#5C5F68"/>
<path d="M51.8768 68.0732C51.5872 68.0732 51.3747 68.0732 51.2202 68.0925V69.9652H51.7222C51.9539 69.9652 52.1567 69.9459 52.3401 69.917C52.5235 69.888 52.678 69.8397 52.8035 69.7625C52.9289 69.6949 53.0253 69.5984 53.0929 69.4729C53.1604 69.3474 53.1989 69.193 53.1989 68.9999C53.1989 68.8069 53.1604 68.662 53.0929 68.5462C53.0253 68.4304 52.9289 68.3338 52.8035 68.2566C52.678 68.189 52.5429 68.1408 52.3788 68.1119C52.2147 68.0829 52.0503 68.0732 51.8669 68.0732M51.8089 67.4844C52.475 67.4844 52.9963 67.6099 53.3535 67.8705C53.7107 68.1215 53.8941 68.5076 53.8941 69.0096C53.8941 69.2799 53.846 69.5212 53.7494 69.7142C53.6529 69.9073 53.5082 70.0714 53.3248 70.1872C53.1414 70.3127 52.9095 70.3996 52.6489 70.4479C52.3786 70.5058 52.0792 70.5347 51.7509 70.5347H51.2202V72.3013H50.5542V67.6099C50.7376 67.5616 50.9499 67.5327 51.1816 67.5134C51.4132 67.4941 51.6258 67.4844 51.8188 67.4844H51.8089Z" fill="#5C5F68"/>
<path d="M33.5841 78.9898C33.2462 78.9898 32.9473 78.9319 32.6673 78.8257C32.397 78.7195 32.1553 78.5554 31.9622 78.343C31.7691 78.1307 31.6149 77.87 31.5088 77.5611C31.4026 77.2522 31.3447 76.8951 31.3447 76.4993C31.3447 76.1035 31.4026 75.7463 31.5281 75.4374C31.6536 75.1285 31.8174 74.8679 32.0202 74.6555C32.2229 74.4432 32.4642 74.2887 32.7441 74.1729C33.0144 74.0667 33.3138 74.0088 33.6227 74.0088C33.8158 74.0088 33.999 74.0184 34.1535 74.0474C34.3079 74.0763 34.4529 74.1053 34.5687 74.1439C34.6846 74.1826 34.7809 74.2212 34.8581 74.2501C34.9354 74.2887 34.9838 74.3177 35.0127 74.3274L34.82 74.8775C34.82 74.8775 34.7232 74.8197 34.646 74.7907C34.5688 74.7617 34.4819 74.7231 34.3854 74.6942C34.2888 74.6652 34.1828 74.6362 34.0573 74.6169C33.9415 74.5976 33.8255 74.588 33.7 74.588C33.4491 74.588 33.2172 74.6362 33.0241 74.7231C32.8214 74.81 32.6479 74.9355 32.5127 75.0996C32.3679 75.2637 32.2619 75.4664 32.1847 75.6981C32.1074 75.9298 32.0687 76.2001 32.0687 76.4897C32.0687 76.7792 32.0978 77.0302 32.1653 77.2619C32.2329 77.4936 32.329 77.6963 32.4642 77.8604C32.5993 78.0245 32.7634 78.1597 32.9662 78.2465C33.1689 78.3334 33.4008 78.3816 33.6614 78.3816C33.9703 78.3816 34.2213 78.3527 34.424 78.2851C34.6267 78.2176 34.7809 78.1596 34.8775 78.1114L35.0514 78.6616C35.0514 78.6616 34.9643 78.7098 34.8775 78.7485C34.7906 78.7871 34.6942 78.8161 34.5687 78.845C34.4432 78.874 34.2982 78.9029 34.1341 78.9319C33.97 78.9512 33.787 78.9705 33.594 78.9705" fill="#5C5F68"/>
<path d="M36.3062 76.51C36.3062 76.7996 36.3452 77.0602 36.4127 77.3016C36.49 77.5332 36.5863 77.7359 36.7215 77.9001C36.8566 78.0642 37.021 78.1897 37.214 78.2862C37.4071 78.3731 37.6288 78.4214 37.8701 78.4214C38.1115 78.4214 38.3337 78.3731 38.5267 78.2862C38.7198 78.1993 38.8837 78.0738 39.0188 77.9001C39.154 77.7359 39.2604 77.5332 39.328 77.3016C39.4052 77.0699 39.4341 76.7996 39.4341 76.51C39.4341 76.2204 39.3956 75.9598 39.328 75.7281C39.2508 75.4964 39.154 75.2937 39.0188 75.1296C38.8837 74.9655 38.7198 74.8401 38.5267 74.7532C38.3337 74.6663 38.1211 74.618 37.8701 74.618C37.6192 74.618 37.4071 74.6663 37.214 74.7532C37.021 74.8401 36.8566 74.9655 36.7215 75.1296C36.5863 75.2937 36.4803 75.4964 36.4127 75.7281C36.3355 75.9598 36.3062 76.2301 36.3062 76.51ZM35.6016 76.51C35.6016 76.1046 35.6599 75.7474 35.7854 75.4289C35.9109 75.12 36.0748 74.8593 36.2775 74.6469C36.4898 74.4346 36.7312 74.2801 37.0015 74.174C37.2814 74.0678 37.5709 74.0195 37.8895 74.0195C38.208 74.0195 38.4879 74.0678 38.7582 74.174C39.0284 74.2801 39.27 74.4346 39.4727 74.6469C39.6754 74.8593 39.8393 75.12 39.9648 75.4289C40.0903 75.7378 40.1486 76.1046 40.1486 76.51C40.1486 76.9154 40.0903 77.2727 39.9648 77.5912C39.8393 77.9001 39.6754 78.1607 39.4727 78.3731C39.27 78.5855 39.0284 78.7399 38.7582 78.8461C38.4879 78.9523 38.1984 79.0005 37.8895 79.0005C37.5806 79.0005 37.2814 78.9523 37.0015 78.8461C36.7215 78.7399 36.4802 78.5855 36.2775 78.3731C36.0651 78.1607 35.9012 77.9098 35.7854 77.5912C35.6599 77.2823 35.6016 76.9154 35.6016 76.51Z" fill="#5C5F68"/>
<path d="M43.2858 78.2277C43.2375 78.1215 43.1792 77.9767 43.102 77.8126C43.0248 77.6389 42.9475 77.4554 42.8607 77.2624C42.7738 77.0693 42.6772 76.8666 42.5807 76.6542C42.4841 76.4419 42.388 76.2488 42.3012 76.0654C42.2143 75.882 42.1371 75.7179 42.0598 75.5634C41.9826 75.4186 41.9243 75.3028 41.876 75.2256C41.8277 75.7662 41.7796 76.355 41.7506 76.9825C41.7217 77.6099 41.6929 78.247 41.6639 78.8938H41.0073C41.0266 78.4787 41.046 78.0636 41.0653 77.6485C41.0846 77.2334 41.1136 76.8183 41.1426 76.4129C41.1716 76.0075 41.2006 75.6117 41.2392 75.2256C41.2778 74.8394 41.3069 74.4726 41.3552 74.1348H41.9439C42.0694 74.3375 42.2042 74.5788 42.3393 74.8491C42.4841 75.1194 42.6197 75.409 42.7645 75.7082C42.9093 76.0075 43.0441 76.3067 43.1793 76.606C43.3144 76.9052 43.4301 77.1755 43.546 77.4265C43.6522 77.1755 43.778 76.9052 43.9132 76.606C44.0483 76.3067 44.1832 76.0075 44.3279 75.7082C44.4727 75.409 44.6078 75.1194 44.7526 74.8491C44.8974 74.5788 45.0231 74.3375 45.1486 74.1348H45.7373C45.8917 75.6696 46.0079 77.2527 46.0851 78.8938H45.4285C45.4092 78.2566 45.3804 77.6196 45.3418 76.9825C45.3129 76.355 45.2647 75.7662 45.2164 75.2256C45.1682 75.3028 45.1098 75.4186 45.0326 75.5634C44.9554 75.7082 44.8782 75.8723 44.7913 76.0654C44.7044 76.2488 44.6078 76.4515 44.5113 76.6542C44.4148 76.8666 44.3187 77.0693 44.2318 77.2624C44.1449 77.4554 44.0677 77.6389 43.9905 77.8126C43.9132 77.9864 43.8549 78.1215 43.8066 78.2277H43.2665H43.2858Z" fill="#5C5F68"/>
<path d="M48.4496 74.666C48.16 74.666 47.9479 74.666 47.7935 74.6853V76.558H48.2954C48.5271 76.558 48.7295 76.5387 48.9129 76.5097C49.0963 76.4807 49.2507 76.4325 49.3762 76.3553C49.5017 76.2877 49.5985 76.1912 49.6661 76.0657C49.7337 75.9402 49.7722 75.7858 49.7722 75.5927C49.7722 75.3996 49.7337 75.2548 49.6661 75.139C49.5985 75.0231 49.5017 74.9266 49.3762 74.8494C49.2507 74.7818 49.1156 74.7335 48.9515 74.7046C48.7874 74.6756 48.6235 74.666 48.4401 74.666M48.3822 74.0771C49.0482 74.0771 49.5696 74.2026 49.9268 74.4632C50.2839 74.7142 50.4674 75.1003 50.4674 75.6023C50.4674 75.8726 50.4187 76.114 50.3222 76.307C50.2257 76.5001 50.0809 76.6642 49.8975 76.78C49.7141 76.9055 49.4827 76.9924 49.2221 77.0407C48.9518 77.0986 48.6524 77.1275 48.3242 77.1275H47.7935V78.8941H47.1274V74.2026C47.3205 74.1544 47.5231 74.1254 47.7548 74.1061C47.9865 74.0868 48.1985 74.0771 48.3916 74.0771H48.3822Z" fill="#5C5F68"/>
<path d="M53.8652 77.1272C53.7204 76.7314 53.5754 76.3453 53.4306 75.9688C53.2858 75.5924 53.1312 75.2352 52.9767 74.8973C52.8126 75.2449 52.6681 75.602 52.5233 75.9688C52.3785 76.3453 52.2338 76.7314 52.0986 77.1272H53.8746H53.8652ZM54.4926 78.8938C54.4154 78.691 54.3382 78.4883 54.2706 78.2856C54.203 78.0829 54.1352 77.8802 54.058 77.6775H51.8959L51.4614 78.8938H50.7666C50.95 78.3918 51.1236 77.9188 51.278 77.494C51.4421 77.0693 51.5963 76.6639 51.7508 76.2777C51.9052 75.8916 52.0599 75.5248 52.2047 75.1773C52.3591 74.8298 52.5138 74.4823 52.6779 74.1348H53.2859C53.45 74.4823 53.6042 74.8298 53.7587 75.1773C53.9131 75.5248 54.0678 75.8916 54.2126 76.2777C54.3671 76.6639 54.5213 77.0693 54.6854 77.494C54.8495 77.9188 55.0138 78.3918 55.1972 78.8938H54.4634H54.4926Z" fill="#5C5F68"/>
<path d="M59.1259 78.8937C59.0294 78.7199 58.9137 78.5365 58.7785 78.3241C58.6434 78.1117 58.5083 77.8897 58.3539 77.6677C58.1994 77.4457 58.0447 77.214 57.8806 76.9727C57.7165 76.741 57.5524 76.5093 57.398 76.297C57.2339 76.0749 57.0794 75.8722 56.9346 75.6791C56.7802 75.4861 56.6454 75.3124 56.5199 75.1676V78.884H55.8633V74.125H56.394C56.6064 74.3567 56.8383 74.6173 57.0892 74.9262C57.3306 75.2351 57.5816 75.544 57.8132 75.8722C58.0546 76.1908 58.2768 76.5093 58.4891 76.8279C58.7015 77.1368 58.8845 77.4167 59.0293 77.658V74.1347H59.6859V78.8937H59.1259Z" fill="#5C5F68"/>
<path d="M62.0028 78.8938V76.9825C61.6842 76.4901 61.3853 76.0075 61.1053 75.5345C60.8254 75.0615 60.5645 74.5885 60.3135 74.1348H61.0954C61.2692 74.5112 61.4621 74.8877 61.6841 75.2835C61.8965 75.6696 62.119 76.0461 62.3506 76.4032C62.5727 76.0461 62.7944 75.6696 63.0067 75.2835C63.2191 74.8974 63.4217 74.5112 63.5954 74.1348H64.3388C64.0878 74.5885 63.8273 75.0615 63.5474 75.5345C63.2674 76.0075 62.9683 76.4901 62.6594 76.9728V78.8938H61.9933H62.0028Z" fill="#5C5F68"/>
<path d="M44.9752 41.2364C44.8304 41.2364 44.7145 41.1206 44.6952 40.9854C44.2994 38.1281 42.5135 36.9504 39.4921 36.9504C36.4706 36.9504 34.7329 38.2246 34.7329 40.4352C34.7329 42.8002 37.1849 43.3022 40.438 43.9779C43.8649 44.6826 48.2379 45.7541 48.2379 50.1849C48.2379 54.857 44.0677 56.5656 40.052 56.5656C35.1289 56.5656 31.4798 54.3261 31.335 49.4512C31.335 49.2871 31.4702 49.1423 31.6343 49.1423H33.7581C33.9126 49.1423 34.0285 49.2678 34.0381 49.4126C34.2795 53.0133 37.0016 54.2778 40.2933 54.2778C42.7452 54.2778 45.5253 53.4187 45.5253 50.4359C45.5253 47.7137 42.8611 47.1828 39.4053 46.3912C36.0074 45.619 32.0783 45.059 32.0783 40.6282C32.0783 36.1975 35.9201 34.624 39.7042 34.624C44.0577 34.624 47.0987 36.5933 47.3979 40.8986C47.4076 41.0627 47.2724 41.2171 47.0986 41.2171H44.9752V41.2364Z" fill="#5C5F68"/>
<path d="M52.1183 35.2614L57.8423 52.5598C57.9292 52.8205 58.306 52.8205 58.3929 52.5598L64.1654 35.2614C64.204 35.1456 64.3197 35.0684 64.4355 35.0684H66.7427C66.9455 35.0684 67.0804 35.2614 67.0128 35.4545L59.715 55.9192C59.6764 56.035 59.5704 56.1122 59.4449 56.1122H56.6649C56.5394 56.1122 56.433 56.035 56.3944 55.9192L49.1258 35.4545C49.0582 35.2711 49.2028 35.0684 49.3958 35.0684H51.8478C51.9733 35.0684 52.0797 35.1456 52.1183 35.2711" fill="#5C5F68"/>
<path d="M77.5058 43.7175L86.2421 55.6391C86.3773 55.8322 86.2419 56.1025 86.0102 56.1025H83.1817C83.0852 56.1025 82.9985 56.0542 82.9503 55.977L75.6044 45.6674C75.4982 45.5226 75.2953 45.5033 75.1698 45.6288L72.0132 48.6213C71.9553 48.6792 71.9265 48.7468 71.9265 48.8336V55.8128C71.9265 55.9769 71.8007 56.1025 71.6366 56.1025H69.4359C69.2814 56.1025 69.146 55.9769 69.146 55.8128V35.3482C69.146 35.1938 69.2718 35.0586 69.4359 35.0586H71.6366C71.791 35.0586 71.9265 35.1841 71.9265 35.3482V44.8083C71.9265 45.0593 72.2351 45.1944 72.4185 45.011L82.5157 35.1455C82.5736 35.0972 82.6411 35.0586 82.7184 35.0586H85.5182C85.7788 35.0586 85.9042 35.3772 85.7208 35.5606L77.5637 43.341C77.4576 43.4375 77.4481 43.6017 77.535 43.7175" fill="#5C5F68"/>
<path d="M28.1782 67.7637H18.2451C18.1196 67.7637 18.0137 67.6672 18.0137 67.5321C18.0137 67.3969 18.1003 67.2908 18.2451 67.3004H28.1782C28.3037 67.3004 28.4101 67.3969 28.4101 67.5321C28.4101 67.6672 28.3037 67.7637 28.1782 67.7637Z" fill="#5C5F68"/>
<path d="M29.4233 11.4378V25.6955C29.4233 25.792 29.3754 25.8789 29.2885 25.9271L22.618 29.7787C22.4346 29.8849 22.4346 30.1455 22.618 30.2421L30.9391 35.0494C31.1226 35.1555 31.3445 35.0204 31.3445 34.8176V12.239C31.3445 12.1425 31.2961 12.0556 31.2092 12.0073L29.8287 11.2061C29.6452 11.0999 29.4233 11.2351 29.4233 11.4378Z" fill="#5C5F68"/>
<path d="M20.147 5.61625C19.9636 5.51006 19.7416 5.64526 19.7416 5.84797V31.2743C19.7416 31.3708 19.6932 31.4577 19.6064 31.506L12.9359 35.3576C12.7525 35.4638 12.7525 35.7244 12.9359 35.821L21.257 40.6282C21.4404 40.7344 21.6624 40.5993 21.6624 40.3965V14.9701C21.6624 14.8736 21.7108 14.7867 21.7976 14.7385L28.4681 10.8869C28.6515 10.7807 28.6515 10.5201 28.4681 10.4236L20.147 5.61625Z" fill="#5C5F68"/>
<path d="M2.4432 14.7385L9.11319 10.8869C9.2966 10.7807 9.2966 10.5201 9.11319 10.4236L0.792547 5.61625C0.609137 5.51006 0.386719 5.64526 0.386719 5.84797V28.4266C0.386719 28.5231 0.435116 28.6101 0.521995 28.6583L1.90256 29.4595C2.08597 29.5657 2.30792 29.4306 2.30792 29.2278V14.9701C2.30792 14.8736 2.35632 14.7867 2.4432 14.7385Z" fill="#5C5F68"/>
<path d="M10.4649 0.0371552C10.2815 -0.0690294 10.059 0.0661051 10.059 0.268821V25.7049C10.059 25.8014 10.0111 25.8883 9.92424 25.9365L3.25377 29.7881C3.07036 29.8943 3.07036 30.1549 3.25377 30.2515L11.5749 35.0587C11.7583 35.1649 11.9802 35.0298 11.9802 34.827V9.39105C11.9802 9.29452 12.0286 9.20765 12.1155 9.15938L18.7855 5.30779C18.9689 5.20161 18.9689 4.94093 18.7855 4.8444L10.4649 0.0371552Z" fill="#5C5F68"/>
</svg>
